<svg id="svg" version="1.1" xmlns="http://www.w3.org/2000/svg" xmlns:xlink="http://www.w3.org/1999/xlink" width="400" height="295.05703422053233" viewBox="0, 0, 400,295.05703422053233"><g id="svgg"><path id="path0" d="M237.306 20.351 C 236.758 21.153,236.011 21.886,235.646 21.980 C 235.173 22.102,234.982 22.371,234.982 22.913 C 234.982 23.750,234.160 25.683,233.805 25.683 C 233.682 25.683,233.491 26.481,233.381 27.456 C 233.247 28.640,232.989 29.408,232.606 29.765 C 232.290 30.060,231.914 30.930,231.770 31.699 C 231.626 32.469,231.237 33.389,230.904 33.745 C 230.559 34.114,230.259 34.897,230.205 35.572 C 230.134 36.461,229.947 36.825,229.446 37.044 C 228.950 37.262,228.782 37.583,228.782 38.313 C 228.782 39.374,228.057 41.033,227.594 41.033 C 227.436 41.033,227.306 41.571,227.306 42.228 C 227.306 43.103,227.120 43.597,226.610 44.073 C 226.128 44.523,225.814 45.297,225.589 46.585 C 225.368 47.850,225.063 48.609,224.639 48.953 C 224.152 49.347,223.995 49.852,223.923 51.250 C 223.848 52.718,223.692 53.182,223.059 53.814 C 222.417 54.456,222.288 54.854,222.288 56.187 C 222.288 57.479,222.170 57.866,221.676 58.194 C 221.203 58.508,221.026 59.023,220.896 60.457 C 220.774 61.798,220.575 62.420,220.180 62.697 C 219.794 62.967,219.576 63.611,219.445 64.869 C 219.292 66.334,219.139 66.711,218.597 66.958 C 218.062 67.202,217.912 67.559,217.805 68.852 C 217.712 69.973,217.481 70.637,217.028 71.090 C 216.578 71.540,216.384 72.095,216.384 72.929 C 216.384 73.839,216.199 74.295,215.610 74.841 C 215.054 75.357,214.793 75.953,214.682 76.967 C 214.585 77.849,214.261 78.696,213.816 79.230 C 213.425 79.699,213.173 80.260,213.256 80.476 C 213.448 80.976,212.873 82.657,212.510 82.657 C 212.139 82.657,211.695 83.892,211.610 85.159 C 211.566 85.811,211.288 86.417,210.862 86.787 C 210.441 87.153,210.185 87.707,210.185 88.250 C 210.185 89.189,209.638 90.627,209.281 90.627 C 209.161 90.627,208.897 91.325,208.695 92.177 C 208.493 93.030,208.081 94.044,207.780 94.431 C 207.479 94.818,207.232 95.579,207.232 96.122 C 207.232 96.836,207.038 97.236,206.526 97.571 C 206.033 97.894,205.761 98.423,205.627 99.320 C 205.521 100.027,205.172 100.907,204.853 101.276 C 204.533 101.644,204.190 102.453,204.091 103.073 C 203.992 103.693,203.595 104.541,203.210 104.957 C 202.770 105.432,202.509 106.072,202.509 106.678 C 202.509 107.339,202.277 107.845,201.771 108.284 C 201.250 108.737,201.033 109.226,201.033 109.946 C 201.033 110.625,200.786 111.232,200.295 111.762 C 199.786 112.311,199.557 112.895,199.557 113.643 C 199.557 114.432,199.356 114.902,198.819 115.369 C 198.055 116.034,197.985 116.232,198.067 117.519 C 198.101 118.049,197.883 118.438,197.361 118.781 C 196.826 119.131,196.605 119.536,196.605 120.169 C 196.605 120.728,196.344 121.304,195.906 121.712 C 195.521 122.069,195.108 122.827,194.988 123.395 C 194.868 123.963,194.533 124.694,194.244 125.018 C 193.954 125.343,193.624 126.046,193.511 126.581 C 193.398 127.116,192.985 127.874,192.594 128.265 C 192.170 128.689,191.882 129.322,191.882 129.830 C 191.882 130.309,191.622 130.918,191.290 131.219 C 190.965 131.513,190.553 132.298,190.376 132.962 C 190.199 133.626,189.801 134.407,189.492 134.698 C 189.183 134.988,188.928 135.520,188.925 135.879 C 188.920 136.682,188.645 137.107,187.970 137.355 C 187.632 137.480,187.454 137.859,187.454 138.455 C 187.454 139.045,187.195 139.604,186.716 140.048 C 186.293 140.440,185.978 141.060,185.978 141.500 C 185.978 141.955,185.617 142.637,185.092 143.173 C 184.605 143.672,184.207 144.288,184.207 144.543 C 184.207 144.798,183.875 145.402,183.469 145.884 C 183.063 146.366,182.731 146.964,182.731 147.213 C 182.731 147.461,182.399 148.059,181.993 148.541 C 181.587 149.023,181.255 149.584,181.255 149.787 C 181.255 149.989,180.923 150.467,180.517 150.849 C 180.111 151.230,179.779 151.785,179.779 152.081 C 179.779 152.377,179.515 152.884,179.193 153.206 C 178.640 153.758,178.018 154.829,177.031 156.925 C 176.795 157.426,176.254 158.184,175.829 158.609 C 175.403 159.035,175.055 159.572,175.055 159.803 C 175.055 160.034,174.848 160.395,174.595 160.605 C 174.343 160.814,173.956 161.416,173.737 161.941 C 173.517 162.466,173.060 162.983,172.721 163.091 C 172.376 163.200,172.103 163.538,172.103 163.855 C 172.103 164.167,171.838 164.589,171.513 164.792 C 171.188 164.995,170.923 165.323,170.923 165.522 C 170.923 165.721,170.524 166.337,170.037 166.892 C 169.550 167.447,169.151 168.034,169.151 168.197 C 169.151 168.360,168.819 168.711,168.413 168.977 C 168.007 169.243,167.675 169.645,167.675 169.871 C 167.675 170.097,167.413 170.592,167.093 170.971 C 166.773 171.350,165.677 172.658,164.658 173.878 C 163.639 175.097,162.200 176.691,161.461 177.420 C 160.722 178.149,160.029 178.978,159.921 179.262 C 159.812 179.546,159.525 179.779,159.282 179.779 C 159.039 179.779,158.681 180.077,158.486 180.443 C 158.011 181.336,154.073 185.455,152.347 186.863 C 151.850 187.269,151.241 187.779,150.994 187.996 C 150.035 188.838,147.459 190.701,147.254 190.701 C 147.135 190.701,146.721 191.000,146.333 191.365 C 145.945 191.731,145.165 192.428,144.598 192.915 C 144.031 193.402,142.798 194.465,141.859 195.277 C 139.923 196.949,139.447 197.198,138.564 196.998 C 137.877 196.842,137.576 197.489,137.569 199.133 C 137.564 200.216,138.696 201.182,140.329 201.488 C 140.930 201.601,141.402 201.864,141.402 202.085 C 141.402 202.921,142.097 203.947,142.778 204.118 C 143.169 204.216,143.608 204.592,143.754 204.953 C 145.035 208.126,144.984 208.058,146.332 208.397 C 147.810 208.770,148.145 209.288,147.500 210.209 C 146.899 211.067,147.805 212.354,149.580 213.163 C 150.784 213.712,150.825 213.777,151.014 215.449 C 151.215 217.224,151.573 217.617,153.579 218.265 C 153.895 218.367,154.096 218.728,154.096 219.193 C 154.096 219.640,154.423 220.258,154.887 220.687 C 155.617 221.364,155.680 221.608,155.699 223.845 L 155.720 226.269 157.638 226.506 C 159.813 226.774,160.623 227.294,160.012 228.029 C 159.803 228.281,159.457 228.487,159.243 228.487 C 158.763 228.487,158.648 228.675,158.388 229.889 C 158.146 231.015,159.140 231.314,159.692 230.282 C 159.859 229.971,160.378 229.632,160.846 229.529 C 161.314 229.426,162.003 229.017,162.376 228.619 C 162.749 228.222,163.226 227.897,163.436 227.897 C 163.645 227.897,163.956 227.637,164.126 227.319 C 164.455 226.704,166.083 226.130,167.504 226.127 C 167.979 226.126,168.579 225.934,168.838 225.699 C 169.519 225.083,172.852 224.627,176.011 224.718 C 178.241 224.783,178.963 224.690,179.926 224.217 C 180.942 223.719,181.892 223.621,186.713 223.520 C 192.161 223.406,192.343 223.382,193.185 222.673 C 193.915 222.059,194.299 221.959,195.624 222.042 C 196.700 222.109,197.196 222.029,197.196 221.788 C 197.195 221.218,198.434 220.517,199.441 220.517 C 200.111 220.517,200.511 220.308,200.858 219.779 C 201.185 219.281,201.612 219.041,202.173 219.041 C 202.771 219.041,203.098 218.836,203.337 218.311 C 203.524 217.901,204.031 217.492,204.492 217.377 C 204.944 217.266,205.481 216.939,205.685 216.652 C 205.988 216.226,206.230 216.181,207.011 216.405 C 207.537 216.556,208.001 216.679,208.042 216.679 C 208.084 216.679,208.118 216.352,208.118 215.953 C 208.118 215.553,208.325 215.055,208.577 214.846 C 208.830 214.636,209.416 214.133,209.880 213.727 C 210.344 213.321,211.136 212.657,211.639 212.251 C 212.142 211.845,212.842 211.214,213.194 210.849 C 213.546 210.483,214.009 210.185,214.223 210.185 C 214.437 210.185,214.613 209.966,214.613 209.699 C 214.613 209.432,214.880 208.934,215.208 208.592 C 215.535 208.250,216.391 207.339,217.110 206.568 C 217.828 205.797,218.524 205.166,218.656 205.166 C 218.788 205.166,219.073 204.768,219.288 204.280 C 219.504 203.793,219.869 203.395,220.099 203.395 C 220.357 203.395,220.518 203.084,220.521 202.583 C 220.527 201.562,220.788 201.172,221.605 200.966 C 222.747 200.678,222.805 202.569,221.693 203.838 C 221.408 204.162,221.084 204.727,220.973 205.092 C 220.863 205.458,220.578 205.756,220.342 205.756 C 220.105 205.756,219.780 206.101,219.620 206.523 C 219.460 206.945,219.069 207.358,218.752 207.441 C 218.434 207.524,218.097 207.836,218.002 208.135 C 217.907 208.434,217.570 208.761,217.253 208.861 C 216.551 209.084,213.432 212.061,213.432 212.507 C 213.432 212.684,213.105 213.042,212.705 213.304 C 212.306 213.566,211.900 214.027,211.805 214.329 C 211.709 214.631,211.403 214.950,211.126 215.038 C 210.849 215.126,210.490 215.498,210.329 215.864 C 210.169 216.231,209.727 216.575,209.349 216.629 C 208.971 216.682,208.406 216.981,208.094 217.293 C 207.783 217.605,207.250 217.860,206.912 217.860 C 206.496 217.860,206.185 218.152,205.957 218.757 C 205.743 219.323,205.344 219.721,204.876 219.835 C 204.467 219.935,203.816 220.262,203.429 220.562 C 203.042 220.862,202.474 221.107,202.167 221.107 C 201.845 221.107,201.492 221.416,201.332 221.837 C 201.039 222.606,199.948 223.049,198.974 222.795 C 198.601 222.697,198.086 222.945,197.505 223.499 C 196.758 224.214,196.363 224.354,195.105 224.354 C 193.900 224.354,193.493 224.487,193.063 225.018 C 192.544 225.659,192.331 225.685,187.014 225.753 C 181.740 225.821,181.479 225.852,180.978 226.471 C 180.423 227.157,178.548 227.527,175.383 227.577 C 174.325 227.593,173.682 227.751,173.464 228.049 C 173.284 228.296,172.236 228.664,171.135 228.867 C 169.549 229.159,169.208 229.312,169.496 229.600 C 170.031 230.134,172.960 230.032,176.679 229.350 C 178.465 229.022,180.723 228.625,181.697 228.468 C 182.672 228.311,184.066 227.952,184.797 227.670 C 186.292 227.095,190.324 226.996,194.474 227.433 C 196.623 227.659,196.962 227.630,197.286 227.187 C 197.850 226.416,199.618 226.140,204.044 226.133 C 207.127 226.127,208.145 226.030,208.325 225.726 C 208.768 224.975,209.850 224.649,211.902 224.649 C 213.729 224.649,213.971 224.583,214.113 224.037 C 214.201 223.700,214.549 223.353,214.886 223.265 C 215.371 223.138,215.498 222.870,215.498 221.975 C 215.498 221.157,215.672 220.724,216.127 220.405 C 216.642 220.044,216.767 219.624,216.821 218.069 C 216.896 215.916,217.067 215.498,217.877 215.498 C 218.252 215.498,218.450 215.295,218.450 214.913 C 218.450 214.541,218.709 214.264,219.163 214.150 C 219.556 214.051,219.947 213.685,220.036 213.332 C 220.124 212.981,220.494 212.561,220.857 212.399 C 221.220 212.236,221.619 211.713,221.744 211.236 C 221.869 210.759,222.308 210.056,222.720 209.674 C 223.132 209.292,223.469 208.861,223.469 208.716 C 223.469 208.572,223.734 208.369,224.058 208.266 C 224.383 208.163,224.727 207.765,224.823 207.382 C 224.919 206.999,225.251 206.456,225.562 206.175 C 225.872 205.895,226.125 205.298,226.125 204.850 C 226.125 204.324,226.386 203.842,226.857 203.493 C 227.339 203.137,227.651 202.548,227.769 201.771 C 227.867 201.122,228.219 200.298,228.550 199.941 C 228.966 199.493,229.175 198.818,229.226 197.767 C 229.294 196.355,229.526 195.934,230.406 195.626 C 230.568 195.569,230.710 194.670,230.722 193.628 C 230.760 190.081,230.792 189.936,231.620 189.559 C 232.372 189.216,232.386 189.159,232.184 187.273 C 231.910 184.711,232.248 181.922,232.913 181.257 C 233.369 180.801,233.459 179.887,233.627 173.984 C 233.872 165.348,234.040 163.366,234.563 162.932 C 234.855 162.689,234.992 161.861,235.016 160.185 C 235.036 158.866,235.145 157.387,235.260 156.900 C 235.419 156.223,235.324 155.853,234.856 155.327 C 234.519 154.949,234.103 154.152,233.931 153.556 C 233.639 152.542,233.606 152.650,233.417 155.218 C 233.064 160.008,231.940 160.586,231.032 156.443 C 230.766 155.230,231.574 149.451,232.092 148.861 C 232.930 147.907,232.991 146.976,233.083 133.743 C 233.225 113.101,233.720 86.864,233.974 86.452 C 234.102 86.246,234.380 80.426,234.592 73.519 C 234.985 60.711,235.135 58.620,235.959 54.465 C 236.416 52.157,237.351 42.143,237.346 39.612 C 237.344 38.911,237.629 37.673,237.979 36.861 C 238.536 35.566,238.574 35.213,238.285 34.002 C 237.856 32.202,238.680 31.292,240.737 31.292 C 241.449 31.292,242.105 31.173,242.195 31.027 C 242.355 30.767,244.052 31.497,244.875 32.181 C 245.370 32.591,247.970 37.706,247.970 38.268 C 247.970 38.480,248.260 39.156,248.614 39.770 C 249.866 41.940,250.332 42.935,250.332 43.437 C 250.332 43.717,250.601 44.031,250.930 44.135 C 251.991 44.472,252.494 45.606,252.285 47.189 C 252.110 48.506,252.151 48.635,252.838 48.948 C 253.734 49.357,253.757 49.594,252.989 50.480 C 252.164 51.430,252.251 52.503,253.314 54.509 C 254.189 56.160,254.220 56.342,254.038 58.650 C 253.841 61.140,254.326 63.971,255.186 65.351 C 255.649 66.094,256.276 70.779,256.036 71.697 C 255.926 72.120,256.151 72.744,256.702 73.538 C 257.479 74.660,257.543 74.977,257.662 78.325 C 257.749 80.768,257.911 82.006,258.170 82.210 C 258.799 82.705,259.185 84.715,259.187 87.509 C 259.188 89.837,259.266 90.229,259.852 90.853 C 260.448 91.485,260.527 91.915,260.617 94.979 C 260.707 98.061,260.780 98.450,261.355 98.915 C 261.946 99.393,262.000 99.745,262.094 103.737 C 262.150 106.106,262.313 108.044,262.456 108.044 C 263.240 108.044,263.642 109.911,263.597 113.348 C 263.555 116.614,263.608 116.972,264.352 118.493 C 265.105 120.032,265.141 120.287,264.960 122.868 C 264.606 127.944,264.611 128.030,265.328 128.793 C 266.400 129.933,266.646 131.275,266.090 132.947 C 265.532 134.627,265.881 138.608,266.731 140.251 C 267.052 140.872,267.168 141.635,267.079 142.546 C 266.885 144.529,267.850 151.563,268.783 154.972 C 269.026 155.860,269.225 157.134,269.225 157.803 C 269.225 158.473,269.427 159.673,269.673 160.470 C 270.147 162.002,270.634 165.174,270.848 168.118 C 270.918 169.092,271.243 170.886,271.570 172.103 C 271.896 173.321,272.166 174.841,272.170 175.480 C 272.180 177.109,272.756 180.072,273.244 181.005 C 273.469 181.436,273.653 182.182,273.653 182.663 C 273.653 183.821,274.675 185.092,275.607 185.092 C 276.009 185.092,276.646 185.424,277.022 185.830 C 277.398 186.236,277.860 186.568,278.048 186.568 C 278.235 186.568,278.543 186.907,278.732 187.320 C 279.061 188.044,279.166 188.070,281.476 188.019 C 283.777 187.969,285.166 188.314,285.166 188.936 C 285.166 189.091,285.659 189.423,286.262 189.675 C 286.865 189.927,287.579 190.333,287.849 190.578 C 288.281 190.968,288.361 190.969,288.508 190.586 C 289.148 188.917,290.168 189.485,293.429 193.325 C 293.996 193.993,294.620 194.539,294.815 194.539 C 295.010 194.539,295.343 194.778,295.555 195.070 C 295.767 195.362,296.373 195.777,296.900 195.992 C 297.428 196.206,297.860 196.505,297.860 196.656 C 297.860 196.807,298.331 197.127,298.906 197.368 C 299.481 197.608,300.027 198.000,300.118 198.238 C 300.414 199.009,300.812 198.698,300.812 197.695 C 300.812 195.889,302.246 195.039,302.787 196.525 C 302.892 196.812,303.354 197.484,303.814 198.018 C 304.273 198.551,304.649 199.159,304.649 199.368 C 304.649 199.578,304.982 200.061,305.387 200.443 C 305.793 200.824,306.125 201.305,306.125 201.511 C 306.125 201.717,306.358 202.059,306.642 202.271 C 306.926 202.483,307.510 203.122,307.938 203.690 C 308.367 204.258,309.595 205.618,310.669 206.712 C 311.742 207.806,312.620 208.805,312.620 208.933 C 312.620 209.060,313.052 209.401,313.579 209.691 C 314.402 210.142,315.098 211.002,316.605 213.430 C 317.301 214.550,323.171 220.010,324.094 220.396 C 324.650 220.628,325.252 221.006,325.431 221.235 C 327.306 223.634,329.127 221.853,327.366 219.342 C 327.079 218.932,326.763 218.113,326.662 217.520 C 326.561 216.928,326.284 216.281,326.046 216.084 C 325.808 215.886,325.466 215.177,325.285 214.507 C 325.105 213.837,324.704 212.934,324.395 212.500 C 324.086 212.066,323.745 211.267,323.638 210.726 C 323.531 210.185,323.133 209.157,322.755 208.443 C 322.376 207.729,322.066 206.905,322.066 206.611 C 322.066 206.318,321.734 205.588,321.328 204.990 C 320.923 204.392,320.590 203.689,320.588 203.427 C 320.587 203.166,320.325 202.556,320.006 202.071 C 319.686 201.586,319.339 200.614,319.233 199.910 C 319.127 199.206,318.730 198.260,318.350 197.809 C 317.970 197.357,317.571 196.437,317.464 195.763 C 317.356 195.090,317.168 194.539,317.046 194.539 C 316.771 194.539,316.264 193.251,316.000 191.882 C 315.891 191.314,315.601 190.621,315.355 190.343 C 315.110 190.064,314.795 189.225,314.655 188.477 C 314.516 187.729,314.144 186.790,313.830 186.391 C 313.516 185.992,313.167 185.105,313.055 184.419 C 312.943 183.734,312.672 182.970,312.453 182.722 C 312.235 182.474,311.853 181.490,311.604 180.536 C 311.356 179.582,310.959 178.587,310.722 178.326 C 310.485 178.064,310.144 177.190,309.963 176.384 C 309.782 175.577,309.437 174.700,309.197 174.433 C 308.956 174.167,308.655 173.292,308.528 172.488 C 308.391 171.623,308.034 170.765,307.654 170.384 C 307.300 170.031,307.011 169.374,307.011 168.926 C 307.011 168.477,306.749 167.621,306.429 167.024 C 306.109 166.427,305.687 165.299,305.490 164.519 C 305.293 163.738,304.901 162.701,304.618 162.214 C 304.334 161.727,304.010 160.797,303.897 160.148 C 303.784 159.498,303.442 158.552,303.137 158.046 C 302.832 157.539,302.497 156.500,302.392 155.736 C 302.287 154.972,302.022 154.168,301.803 153.949 C 301.280 153.426,300.812 152.169,300.812 151.288 C 300.812 150.901,300.480 149.960,300.074 149.197 C 299.668 148.433,299.336 147.570,299.336 147.278 C 299.336 146.986,299.004 146.123,298.598 145.359 C 298.192 144.596,297.860 143.625,297.860 143.201 C 297.860 142.777,297.545 141.834,297.161 141.105 C 296.776 140.375,296.371 139.158,296.261 138.401 C 296.150 137.643,295.874 136.869,295.648 136.680 C 295.421 136.492,295.082 135.585,294.894 134.664 C 294.707 133.743,294.315 132.723,294.024 132.399 C 293.732 132.074,293.401 131.210,293.287 130.480 C 293.173 129.749,292.898 128.865,292.677 128.514 C 292.455 128.164,292.112 127.234,291.916 126.448 C 291.720 125.662,291.250 124.434,290.872 123.720 C 290.494 123.006,290.185 122.140,290.185 121.797 C 290.185 121.453,289.929 120.696,289.617 120.114 C 289.305 119.532,288.911 118.306,288.742 117.390 C 288.573 116.473,288.176 115.358,287.861 114.910 C 287.546 114.462,287.199 113.580,287.092 112.949 C 286.984 112.318,286.653 111.454,286.356 111.030 C 286.059 110.605,285.737 109.616,285.641 108.832 C 285.545 108.047,285.211 107.082,284.900 106.686 C 284.589 106.290,284.241 105.272,284.128 104.422 C 284.014 103.573,283.728 102.659,283.491 102.391 C 283.255 102.123,282.877 101.126,282.651 100.177 C 282.426 99.227,281.970 97.924,281.637 97.281 C 281.305 96.638,281.033 95.770,281.033 95.354 C 281.033 94.937,280.835 94.314,280.594 93.969 C 280.352 93.624,279.970 92.552,279.745 91.587 C 279.520 90.623,279.132 89.514,278.883 89.123 C 278.634 88.733,278.272 87.616,278.078 86.642 C 277.883 85.668,277.549 84.672,277.335 84.428 C 277.120 84.185,276.785 83.321,276.590 82.509 C 276.396 81.697,276.069 80.762,275.864 80.431 C 275.659 80.100,275.328 79.037,275.128 78.069 C 274.928 77.102,274.501 75.938,274.179 75.484 C 273.857 75.030,273.519 74.100,273.428 73.418 C 273.337 72.735,273.020 71.845,272.722 71.439 C 272.425 71.033,272.094 70.037,271.987 69.225 C 271.870 68.337,271.516 67.417,271.099 66.915 C 270.718 66.456,270.406 65.789,270.406 65.434 C 270.406 65.079,270.119 64.259,269.769 63.612 C 269.418 62.965,269.025 61.876,268.894 61.192 C 268.764 60.508,268.400 59.692,268.086 59.378 C 267.773 59.064,267.419 58.229,267.300 57.522 C 267.181 56.815,266.846 55.933,266.555 55.563 C 266.265 55.193,265.940 54.375,265.833 53.745 C 265.727 53.114,265.386 52.369,265.077 52.089 C 264.767 51.809,264.428 51.100,264.324 50.513 C 264.219 49.926,263.894 49.181,263.602 48.856 C 263.309 48.531,262.976 47.867,262.861 47.380 C 262.747 46.893,262.419 46.229,262.133 45.904 C 261.847 45.579,261.519 44.868,261.404 44.323 C 261.288 43.777,260.875 42.862,260.486 42.289 C 260.097 41.715,259.779 41.000,259.779 40.699 C 259.779 40.399,259.510 39.985,259.181 39.781 C 258.827 39.561,258.510 38.953,258.403 38.292 C 258.304 37.677,257.978 37.002,257.679 36.792 C 257.379 36.582,256.939 35.945,256.702 35.377 C 256.465 34.809,256.063 34.172,255.810 33.962 C 255.557 33.753,255.351 33.405,255.351 33.191 C 255.351 32.976,255.104 32.627,254.803 32.415 C 254.501 32.203,253.980 31.489,253.643 30.829 C 253.307 30.169,252.823 29.455,252.568 29.243 C 252.312 29.031,252.103 28.722,252.103 28.557 C 252.103 28.392,251.107 27.276,249.889 26.078 C 248.672 24.880,247.675 23.796,247.675 23.668 C 247.675 22.852,243.922 20.395,243.281 20.791 C 243.121 20.890,241.991 20.503,240.770 19.932 C 238.071 18.668,238.490 18.617,237.306 20.351 M258.182 64.506 C 258.285 64.914,258.275 65.874,258.160 66.640 C 257.911 68.299,257.336 67.877,257.002 65.791 C 256.724 64.052,257.780 62.902,258.182 64.506 M260.233 71.469 C 260.466 72.346,260.659 73.690,260.661 74.456 C 260.663 75.324,260.915 76.326,261.328 77.113 C 261.900 78.201,261.993 78.827,261.993 81.624 C 261.993 84.518,262.065 84.972,262.657 85.802 C 263.814 87.424,263.493 93.579,262.251 93.579 C 261.531 93.579,261.255 92.443,261.255 89.491 C 261.255 86.621,261.233 86.528,260.448 85.956 C 259.666 85.386,259.639 85.272,259.533 82.020 C 259.461 79.825,259.290 78.519,259.037 78.229 C 257.905 76.932,257.726 70.527,258.799 69.741 C 259.468 69.251,259.725 69.561,260.233 71.469 M264.385 97.196 C 264.618 97.905,264.590 99.300,264.327 100.148 C 264.049 101.044,263.356 100.711,263.037 99.527 C 262.507 97.558,263.781 95.355,264.385 97.196 M188.044 146.125 C 188.044 146.613,187.934 147.011,187.800 147.011 C 187.666 147.011,187.615 146.613,187.686 146.125 C 187.758 145.638,187.867 145.240,187.930 145.240 C 187.993 145.240,188.044 145.638,188.044 146.125 M186.720 148.199 C 187.041 148.717,186.552 150.258,186.068 150.258 C 185.741 150.258,185.664 150.072,185.792 149.594 C 185.890 149.229,185.972 148.697,185.974 148.413 C 185.978 147.847,186.424 147.720,186.720 148.199 M185.633 150.961 C 185.744 151.531,184.938 152.915,184.495 152.915 C 184.082 152.915,184.138 151.035,184.565 150.609 C 185.022 150.152,185.507 150.312,185.633 150.961 M183.911 153.742 C 183.911 154.538,183.457 155.277,182.967 155.277 C 182.631 155.277,182.674 154.162,183.036 153.486 C 183.479 152.659,183.911 152.786,183.911 153.742 M182.562 155.538 C 182.827 155.967,182.119 157.629,181.538 157.940 C 181.242 158.099,180.957 158.594,180.905 159.040 C 180.847 159.542,180.558 159.964,180.148 160.144 C 179.722 160.331,179.417 160.794,179.296 161.436 C 179.182 162.046,178.901 162.492,178.579 162.576 C 178.233 162.667,177.982 163.115,177.854 163.870 C 177.735 164.573,177.433 165.147,177.081 165.335 C 176.763 165.506,176.380 165.969,176.229 166.365 C 176.079 166.761,175.742 167.085,175.482 167.085 C 174.904 167.085,175.156 165.364,175.809 164.847 C 176.031 164.671,176.353 164.160,176.523 163.711 C 176.694 163.262,177.088 162.828,177.399 162.747 C 177.784 162.646,178.027 162.234,178.158 161.459 C 178.286 160.703,178.541 160.259,178.917 160.140 C 179.268 160.028,179.483 159.691,179.483 159.251 C 179.483 158.805,179.812 158.298,180.369 157.887 C 180.856 157.527,181.255 157.002,181.255 156.721 C 181.255 155.538,182.093 154.779,182.562 155.538 M185.181 160.785 C 185.097 161.003,184.910 161.181,184.765 161.181 C 184.457 161.181,184.409 160.191,184.703 159.897 C 184.988 159.612,185.363 160.310,185.181 160.785 M183.734 162.312 C 183.718 162.502,183.685 162.923,183.661 163.247 C 183.633 163.609,183.405 163.838,183.070 163.838 C 182.581 163.838,182.557 163.730,182.847 162.804 C 183.142 161.861,183.804 161.494,183.734 162.312 M182.435 164.667 C 182.435 164.961,182.256 165.446,182.038 165.745 C 181.530 166.440,181.121 165.886,181.380 164.854 C 181.589 164.021,182.435 163.871,182.435 164.667 M180.725 167.263 C 180.678 167.733,180.379 168.300,180.061 168.523 C 179.743 168.746,179.483 169.175,179.483 169.476 C 179.483 169.777,179.172 170.227,178.791 170.477 C 178.410 170.727,177.948 171.261,177.764 171.665 C 177.365 172.540,176.827 172.631,176.827 171.823 C 176.827 171.058,178.529 168.561,179.050 168.561 C 179.280 168.561,179.603 168.034,179.784 167.361 C 180.150 165.999,180.861 165.926,180.725 167.263 M174.714 168.431 C 174.579 169.128,173.921 169.321,173.694 168.729 C 173.467 168.137,174.153 167.245,174.539 167.631 C 174.691 167.783,174.770 168.143,174.714 168.431 M172.753 171.277 C 172.477 171.552,172.399 171.474,172.399 170.923 C 172.399 170.371,172.477 170.293,172.753 170.568 C 173.028 170.844,173.028 171.001,172.753 171.277 M176.236 173.548 C 176.236 174.375,175.538 175.007,175.210 174.477 C 174.988 174.117,175.566 172.694,175.934 172.694 C 176.100 172.694,176.236 173.078,176.236 173.548 M224.945 196.310 C 224.945 196.778,224.828 197.233,224.685 197.321 C 224.385 197.506,223.980 195.792,224.228 195.389 C 224.528 194.905,224.945 195.440,224.945 196.310 M223.351 199.606 C 223.308 200.957,222.583 201.073,222.583 199.729 C 222.583 199.038,222.721 198.672,222.982 198.672 C 223.238 198.672,223.370 199.004,223.351 199.606 M165.538 230.762 C 165.906 230.833,166.437 230.830,166.719 230.756 C 167.002 230.682,166.701 230.625,166.052 230.628 C 165.402 230.631,165.171 230.692,165.538 230.762 " stroke="none" fill="#af4933" fill-rule="evenodd"></path><path id="path1" d="M0.000 147.601 L 0.000 295.203 200.000 295.203 L 400.000 295.203 400.000 147.601 L 400.000 0.000 200.000 0.000 L 0.000 0.000 0.000 147.601 M238.869 18.449 C 239.627 18.547,240.395 18.805,240.575 19.022 C 240.756 19.240,241.643 19.510,242.547 19.623 C 244.352 19.848,246.474 21.010,247.499 22.333 C 247.839 22.773,249.032 24.071,250.150 25.219 C 251.987 27.106,252.595 27.873,254.233 30.372 C 254.512 30.796,254.945 31.410,255.195 31.734 C 255.446 32.059,255.958 32.723,256.332 33.210 C 256.707 33.697,257.187 34.528,257.399 35.055 C 257.611 35.583,257.890 36.015,258.020 36.015 C 258.150 36.015,258.419 36.513,258.618 37.122 C 258.816 37.731,259.291 38.604,259.674 39.063 C 260.056 39.522,260.369 40.033,260.369 40.198 C 260.369 40.364,260.613 40.852,260.911 41.283 C 261.210 41.714,261.627 42.701,261.838 43.476 C 262.049 44.252,262.325 44.950,262.451 45.028 C 262.578 45.107,263.169 46.199,263.764 47.456 C 264.360 48.713,265.234 50.539,265.708 51.513 C 266.181 52.487,266.568 53.487,266.568 53.735 C 266.568 53.983,266.785 54.495,267.049 54.873 C 267.314 55.251,267.651 56.096,267.798 56.751 C 267.945 57.405,268.323 58.269,268.638 58.669 C 268.952 59.068,269.296 59.880,269.401 60.473 C 269.506 61.065,269.827 61.948,270.115 62.435 C 270.402 62.923,270.731 63.786,270.845 64.354 C 270.959 64.923,271.356 65.852,271.728 66.421 C 272.100 66.989,272.492 68.046,272.599 68.769 C 272.706 69.492,273.036 70.488,273.333 70.983 C 273.629 71.477,273.950 72.397,274.045 73.026 C 274.140 73.655,274.440 74.415,274.712 74.714 C 274.983 75.014,275.307 75.762,275.431 76.375 C 275.556 76.989,275.921 78.155,276.242 78.967 C 276.564 79.779,277.028 81.041,277.274 81.771 C 277.519 82.502,277.854 83.498,278.017 83.985 C 278.611 85.756,279.348 87.889,280.463 91.070 C 281.090 92.856,281.611 94.517,281.622 94.760 C 281.633 95.004,281.969 95.867,282.368 96.679 C 282.767 97.491,283.095 98.391,283.097 98.680 C 283.098 98.970,283.415 99.966,283.800 100.895 C 284.185 101.823,284.595 103.114,284.710 103.764 C 284.826 104.413,285.160 105.343,285.454 105.830 C 285.747 106.317,286.134 107.417,286.313 108.274 C 286.493 109.131,286.829 110.127,287.062 110.488 C 287.294 110.849,287.573 111.675,287.681 112.325 C 287.789 112.974,288.115 113.843,288.404 114.255 C 288.693 114.668,289.028 115.465,289.148 116.026 C 289.268 116.588,289.562 117.513,289.801 118.081 C 290.041 118.649,290.417 119.779,290.638 120.590 C 290.859 121.402,291.312 122.593,291.645 123.236 C 291.978 123.879,292.255 124.676,292.260 125.007 C 292.265 125.338,292.596 126.273,292.995 127.085 C 293.395 127.897,293.723 128.834,293.724 129.167 C 293.726 129.501,294.044 130.430,294.432 131.234 C 294.821 132.037,295.213 133.208,295.305 133.837 C 295.398 134.466,295.680 135.210,295.933 135.489 C 296.185 135.768,296.580 136.715,296.809 137.592 C 297.038 138.470,297.434 139.587,297.688 140.074 C 297.943 140.561,298.152 141.264,298.153 141.635 C 298.154 142.007,298.432 142.854,298.770 143.516 C 299.440 144.830,300.669 148.237,301.148 150.111 C 301.315 150.760,301.772 151.923,302.164 152.694 C 302.557 153.465,302.878 154.378,302.878 154.723 C 302.878 155.068,303.191 156.098,303.572 157.011 C 304.288 158.722,304.681 159.773,305.464 162.066 C 305.714 162.797,306.223 164.192,306.595 165.166 C 306.967 166.140,307.406 167.451,307.570 168.079 C 307.734 168.707,308.079 169.454,308.337 169.739 C 308.595 170.024,308.914 170.939,309.046 171.773 C 309.177 172.607,309.493 173.520,309.747 173.803 C 310.001 174.086,310.301 174.817,310.414 175.427 C 310.528 176.037,310.873 176.858,311.182 177.251 C 311.491 177.644,311.858 178.571,311.996 179.312 C 312.134 180.052,312.398 180.840,312.582 181.062 C 312.901 181.446,313.256 182.364,314.846 186.920 C 315.225 188.006,315.733 189.202,315.975 189.577 C 316.216 189.951,316.506 190.790,316.619 191.439 C 316.732 192.089,317.060 193.018,317.347 193.506 C 317.635 193.993,317.960 194.817,318.070 195.337 C 318.180 195.857,318.504 196.587,318.790 196.960 C 319.075 197.333,319.516 198.236,319.768 198.967 C 320.903 202.256,321.556 203.870,321.917 204.280 C 322.131 204.524,322.458 205.290,322.642 205.982 C 322.826 206.675,323.223 207.671,323.522 208.196 C 323.822 208.722,324.152 209.636,324.256 210.229 C 324.359 210.821,324.633 211.463,324.864 211.654 C 325.095 211.846,325.432 212.490,325.614 213.086 C 325.956 214.208,327.021 216.651,327.953 218.450 C 328.247 219.018,328.586 220.081,328.706 220.812 C 328.825 221.542,329.052 222.300,329.210 222.496 C 329.611 222.993,329.242 223.469,328.457 223.469 C 327.757 223.469,325.622 222.399,323.529 220.998 C 322.209 220.115,316.449 214.455,315.424 213.033 C 315.100 212.583,313.198 210.545,311.198 208.505 C 309.198 206.464,307.272 204.361,306.918 203.831 C 306.563 203.301,305.609 201.986,304.797 200.908 L 303.321 198.950 302.672 199.756 C 302.056 200.521,301.995 200.537,301.468 200.060 C 301.163 199.783,300.757 199.557,300.567 199.557 C 300.377 199.557,299.966 199.302,299.653 198.989 C 299.341 198.677,298.776 198.262,298.399 198.068 C 296.425 197.053,291.956 193.363,291.956 192.749 C 291.956 192.363,290.621 191.554,289.990 191.557 C 289.691 191.558,288.962 191.579,288.370 191.602 C 287.557 191.635,286.845 191.348,285.470 190.435 C 284.009 189.465,283.491 189.266,282.857 189.434 C 281.954 189.673,281.746 189.648,279.651 189.060 C 278.809 188.823,277.710 188.284,277.209 187.862 C 276.150 186.971,274.700 187.051,273.796 188.050 C 273.505 188.372,272.917 188.635,272.489 188.635 C 272.061 188.635,271.185 188.905,270.542 189.235 C 269.899 189.565,268.642 190.045,267.749 190.301 C 266.856 190.557,265.999 190.885,265.845 191.029 C 265.691 191.173,265.226 191.292,264.812 191.293 C 264.398 191.293,263.606 191.592,263.053 191.957 C 262.500 192.322,261.504 192.980,260.839 193.421 C 260.175 193.862,259.232 194.444,258.745 194.714 C 257.854 195.210,250.654 201.153,248.364 203.284 C 247.688 203.913,246.537 204.984,245.806 205.662 C 245.075 206.341,244.075 207.105,243.583 207.359 C 243.092 207.613,242.217 208.519,241.639 209.372 C 240.093 211.654,239.941 211.819,238.899 212.357 C 238.375 212.628,237.379 213.605,236.685 214.528 C 235.992 215.450,235.108 216.544,234.722 216.959 C 234.335 217.373,233.283 218.841,232.384 220.221 C 231.485 221.601,230.669 222.797,230.570 222.878 C 230.411 223.010,228.766 225.106,227.375 226.951 C 227.093 227.324,226.530 227.993,226.122 228.439 C 225.715 228.884,224.851 229.906,224.203 230.709 C 222.157 233.247,218.481 236.938,217.444 237.497 C 216.894 237.793,216.227 238.444,215.961 238.944 C 214.717 241.280,213.902 242.351,212.042 244.088 C 210.939 245.119,209.559 246.270,208.975 246.646 C 208.392 247.022,207.695 247.792,207.427 248.357 C 206.514 250.280,205.097 251.218,203.103 251.218 L 201.355 251.218 201.155 252.325 C 200.769 254.456,199.314 256.165,197.029 257.171 C 196.552 257.380,195.408 258.086,194.486 258.739 C 193.564 259.392,192.434 260.158,191.976 260.442 C 191.519 260.725,190.546 261.355,189.815 261.841 C 189.085 262.327,187.954 262.973,187.302 263.278 C 186.650 263.582,185.937 264.048,185.716 264.314 C 185.496 264.580,185.119 264.797,184.878 264.797 C 184.638 264.797,183.824 265.126,183.069 265.528 C 177.913 268.278,174.656 268.661,172.838 266.732 C 172.271 266.132,171.804 265.418,171.799 265.145 C 171.794 264.872,171.462 264.118,171.062 263.469 C 170.662 262.819,170.334 262.022,170.333 261.697 C 170.331 261.373,170.080 260.697,169.775 260.197 C 169.470 259.696,169.129 258.872,169.018 258.366 C 168.906 257.859,168.567 257.129,168.264 256.743 C 167.960 256.358,167.622 255.654,167.511 255.180 C 167.401 254.705,167.009 253.786,166.641 253.137 C 166.273 252.487,165.815 251.193,165.622 250.262 C 165.430 249.330,165.105 248.466,164.899 248.343 C 164.693 248.219,164.159 247.337,163.712 246.383 C 162.887 244.622,162.847 243.948,163.409 241.254 C 163.597 240.354,163.551 240.282,162.675 240.107 C 160.674 239.707,159.138 235.955,160.309 234.329 C 160.626 233.889,160.886 233.312,160.886 233.047 C 160.886 232.782,161.185 232.485,161.550 232.388 C 162.210 232.211,162.210 232.209,161.476 232.030 C 161.070 231.930,160.367 231.987,159.914 232.156 C 158.428 232.710,156.900 231.613,156.900 229.990 C 156.900 229.005,156.722 228.514,156.152 227.928 C 155.151 226.900,154.311 224.629,154.562 223.630 C 154.706 223.056,154.596 222.672,154.154 222.198 C 153.821 221.841,153.454 221.151,153.338 220.664 C 153.222 220.177,152.548 219.216,151.840 218.529 C 150.865 217.581,150.554 217.057,150.554 216.360 C 150.554 215.140,149.747 213.831,148.737 213.413 C 147.032 212.707,146.051 210.787,146.911 209.837 C 147.516 209.168,147.327 208.961,145.907 208.735 C 145.060 208.599,144.692 208.348,144.354 207.674 C 143.740 206.450,142.542 204.771,142.081 204.487 C 141.870 204.357,141.496 203.861,141.249 203.384 C 140.988 202.879,140.465 202.434,139.995 202.317 C 138.773 202.014,136.986 200.410,136.979 199.612 C 136.970 198.346,136.448 197.786,135.277 197.786 C 134.461 197.786,134.040 197.595,133.578 197.017 C 132.998 196.289,132.781 196.238,129.582 196.084 C 124.119 195.820,124.159 195.816,123.127 196.684 C 121.830 197.776,120.164 198.177,117.048 198.148 C 115.023 198.129,114.083 198.258,113.095 198.694 C 111.701 199.309,110.996 199.103,110.996 198.081 C 110.996 197.354,110.475 197.000,108.778 196.577 C 107.433 196.241,105.267 194.890,104.723 194.047 C 104.600 193.858,103.638 193.221,102.585 192.632 C 101.137 191.822,100.627 191.365,100.498 190.762 C 100.085 188.822,99.924 188.677,98.197 188.677 C 96.439 188.677,95.379 188.238,94.038 186.957 C 93.089 186.049,92.660 185.733,90.369 184.250 C 89.528 183.706,88.642 182.879,88.401 182.412 C 88.121 181.871,87.374 181.285,86.341 180.796 C 85.449 180.374,84.372 179.574,83.948 179.018 C 83.524 178.462,82.947 178.007,82.666 178.007 C 81.817 178.007,79.655 176.715,76.921 174.573 C 75.498 173.458,73.915 172.247,73.403 171.881 C 70.804 170.023,70.112 169.546,69.228 169.004 C 68.062 168.288,66.932 167.458,65.914 166.568 C 65.496 166.203,65.040 165.904,64.902 165.904 C 64.763 165.904,64.412 165.672,64.121 165.387 C 63.830 165.103,62.402 164.074,60.947 163.101 C 58.072 161.176,56.095 159.773,54.849 158.774 C 54.411 158.422,53.895 158.038,53.704 157.919 C 52.945 157.450,55.890 155.513,57.904 155.157 C 58.496 155.052,59.138 154.777,59.330 154.546 C 59.521 154.315,60.166 153.981,60.762 153.803 C 61.357 153.625,62.376 153.235,63.026 152.935 C 65.304 151.884,67.759 150.877,68.832 150.554 C 69.428 150.375,70.073 150.039,70.264 149.808 C 70.456 149.577,71.098 149.300,71.690 149.193 C 72.283 149.086,73.299 148.697,73.948 148.329 C 74.598 147.961,75.552 147.571,76.068 147.464 C 76.585 147.356,77.158 147.086,77.343 146.863 C 77.528 146.641,78.102 146.369,78.618 146.260 C 79.135 146.151,80.022 145.819,80.590 145.523 C 81.159 145.227,82.155 144.826,82.804 144.632 C 83.454 144.438,84.187 144.105,84.433 143.891 C 84.679 143.677,85.510 143.361,86.279 143.189 C 87.049 143.016,87.943 142.610,88.267 142.286 C 88.591 141.962,89.156 141.697,89.523 141.697 C 89.889 141.697,90.792 141.376,91.529 140.984 C 92.266 140.592,93.395 140.177,94.036 140.062 C 94.678 139.947,95.469 139.625,95.793 139.345 C 96.118 139.066,97.978 138.324,99.926 137.696 C 101.875 137.068,103.867 136.332,104.354 136.059 C 104.841 135.787,105.771 135.470,106.421 135.357 C 107.070 135.243,107.760 135.019,107.953 134.859 C 108.956 134.031,111.991 133.435,112.733 133.922 C 113.431 134.379,113.484 134.362,114.219 133.468 C 114.650 132.944,115.260 132.542,115.623 132.543 C 115.976 132.545,116.651 132.221,117.124 131.823 C 117.709 131.331,118.194 131.155,118.642 131.272 C 119.121 131.397,119.556 131.198,120.240 130.539 C 121.224 129.593,123.017 128.806,125.018 128.442 C 126.424 128.186,127.190 127.799,127.946 126.965 C 128.391 126.472,128.854 126.347,130.226 126.347 C 131.919 126.347,131.955 126.329,132.385 125.301 C 132.625 124.725,133.562 123.578,134.467 122.751 C 135.372 121.924,136.684 120.369,137.383 119.295 C 138.081 118.222,139.338 116.630,140.175 115.758 C 141.012 114.885,141.697 114.057,141.697 113.916 C 141.697 113.664,143.902 111.000,145.354 109.497 C 145.758 109.079,146.174 108.395,146.279 107.978 C 146.564 106.842,153.356 100.412,155.563 99.188 C 156.002 98.945,156.928 98.127,157.621 97.370 C 158.453 96.463,159.211 95.933,159.854 95.813 C 160.389 95.712,160.983 95.441,161.175 95.210 C 161.366 94.979,162.011 94.634,162.607 94.444 C 163.203 94.253,163.956 93.858,164.280 93.565 C 164.605 93.272,165.269 92.938,165.756 92.821 C 166.244 92.705,167.185 92.297,167.849 91.914 C 168.513 91.531,169.223 91.218,169.427 91.218 C 169.631 91.218,170.178 90.947,170.642 90.617 C 171.107 90.286,171.924 89.867,172.459 89.686 C 172.994 89.504,173.784 89.111,174.215 88.811 C 174.646 88.511,175.193 88.266,175.430 88.266 C 175.667 88.266,176.206 87.995,176.627 87.663 C 177.048 87.332,178.444 86.502,179.729 85.818 C 182.153 84.529,187.565 80.990,188.792 79.891 C 189.179 79.545,190.157 78.731,190.966 78.081 C 192.420 76.914,193.063 75.821,193.063 74.517 C 193.063 74.148,193.367 73.471,193.738 73.012 C 194.110 72.553,194.573 71.845,194.767 71.439 C 195.102 70.738,198.611 65.629,199.836 64.059 C 202.753 60.321,203.771 59.039,204.553 58.119 C 205.052 57.531,205.461 56.973,205.461 56.878 C 205.461 56.783,205.760 56.371,206.125 55.961 C 207.113 54.854,207.542 54.324,209.004 52.404 C 209.734 51.445,210.631 50.334,210.996 49.936 C 211.362 49.538,211.661 49.115,211.661 48.996 C 211.661 48.877,212.069 48.611,212.569 48.404 C 213.650 47.956,214.182 47.185,214.445 45.681 C 214.552 45.072,214.885 44.341,215.186 44.058 C 215.486 43.774,215.868 43.042,216.035 42.431 C 216.202 41.820,216.681 40.913,217.099 40.416 C 217.518 39.919,217.860 39.339,217.860 39.128 C 217.860 38.917,218.058 38.579,218.301 38.378 C 218.544 38.176,218.897 37.498,219.085 36.870 C 219.273 36.243,219.672 35.507,219.972 35.236 C 220.271 34.964,220.517 34.614,220.517 34.457 C 220.517 34.111,221.842 31.960,222.952 30.504 C 223.399 29.918,223.764 29.317,223.764 29.168 C 223.764 28.597,226.671 24.943,228.994 22.594 C 232.224 19.328,234.779 17.905,236.900 18.191 C 237.225 18.235,238.111 18.351,238.869 18.449 M249.907 104.657 C 249.701 105.755,249.897 106.394,250.353 106.113 C 250.703 105.896,250.713 103.999,250.364 103.784 C 250.220 103.695,250.014 104.087,249.907 104.657 M181.181 118.002 C 181.871 118.064,183.000 118.064,183.690 118.002 C 184.380 117.940,183.815 117.889,182.435 117.889 C 181.055 117.889,180.491 117.940,181.181 118.002 M167.306 227.215 C 166.560 227.409,166.672 227.803,167.534 228.019 C 168.473 228.255,169.731 227.667,169.117 227.279 C 168.689 227.007,168.169 226.989,167.306 227.215 " stroke="none" fill="#fbfbfb" fill-rule="evenodd"></path><path id="path2" d="M235.451 18.245 C 232.808 18.570,223.764 27.023,223.764 29.168 C 223.764 29.317,223.399 29.918,222.952 30.504 C 221.842 31.960,220.517 34.111,220.517 34.457 C 220.517 34.614,220.271 34.964,219.972 35.236 C 219.672 35.507,219.273 36.243,219.085 36.870 C 218.897 37.498,218.544 38.176,218.301 38.378 C 218.058 38.579,217.860 38.917,217.860 39.128 C 217.860 39.339,217.518 39.919,217.099 40.416 C 216.681 40.913,216.202 41.820,216.035 42.431 C 215.868 43.042,215.486 43.774,215.186 44.058 C 214.885 44.341,214.552 45.072,214.445 45.681 C 214.182 47.185,213.650 47.956,212.569 48.404 C 212.069 48.611,211.661 48.877,211.661 48.996 C 211.661 49.115,211.362 49.538,210.996 49.936 C 210.631 50.334,209.734 51.445,209.004 52.404 C 207.542 54.324,207.113 54.854,206.125 55.961 C 205.760 56.371,205.461 56.783,205.461 56.878 C 205.461 56.973,205.052 57.531,204.553 58.119 C 203.771 59.039,202.753 60.321,199.836 64.059 C 198.611 65.629,195.102 70.738,194.767 71.439 C 194.573 71.845,194.110 72.553,193.738 73.012 C 193.367 73.471,193.063 74.148,193.063 74.517 C 193.063 75.821,192.420 76.914,190.966 78.081 C 190.157 78.731,189.179 79.545,188.792 79.891 C 187.565 80.990,182.153 84.529,179.729 85.818 C 178.444 86.502,177.048 87.332,176.627 87.663 C 176.206 87.995,175.667 88.266,175.430 88.266 C 175.193 88.266,174.646 88.511,174.215 88.811 C 173.784 89.111,172.994 89.504,172.459 89.686 C 171.924 89.867,171.107 90.286,170.642 90.617 C 170.178 90.947,169.631 91.218,169.427 91.218 C 169.223 91.218,168.513 91.531,167.849 91.914 C 167.185 92.297,166.244 92.705,165.756 92.821 C 165.269 92.938,164.605 93.272,164.280 93.565 C 163.956 93.858,163.203 94.253,162.607 94.444 C 162.011 94.634,161.366 94.979,161.175 95.210 C 160.983 95.441,160.389 95.712,159.854 95.813 C 159.211 95.933,158.453 96.463,157.621 97.370 C 156.928 98.127,156.002 98.945,155.563 99.188 C 153.356 100.412,146.564 106.842,146.279 107.978 C 146.174 108.395,145.758 109.079,145.354 109.497 C 143.902 111.000,141.697 113.664,141.697 113.916 C 141.697 114.057,141.012 114.885,140.175 115.758 C 139.338 116.630,138.081 118.222,137.383 119.295 C 136.684 120.369,135.372 121.924,134.467 122.751 C 133.562 123.578,132.625 124.725,132.385 125.301 C 131.955 126.329,131.919 126.347,130.226 126.347 C 128.854 126.347,128.391 126.472,127.946 126.965 C 127.190 127.799,126.424 128.186,125.018 128.442 C 123.017 128.806,121.224 129.593,120.240 130.539 C 119.556 131.198,119.121 131.397,118.642 131.272 C 118.194 131.155,117.709 131.331,117.124 131.823 C 116.651 132.221,115.976 132.545,115.623 132.543 C 115.260 132.542,114.650 132.944,114.219 133.468 C 113.484 134.362,113.431 134.379,112.733 133.922 C 111.991 133.435,108.956 134.031,107.953 134.859 C 107.760 135.019,107.070 135.243,106.421 135.357 C 105.771 135.470,104.841 135.787,104.354 136.059 C 103.867 136.332,101.875 137.068,99.926 137.696 C 97.978 138.324,96.118 139.066,95.793 139.345 C 95.469 139.625,94.678 139.947,94.036 140.062 C 93.395 140.177,92.266 140.592,91.529 140.984 C 90.792 141.376,89.889 141.697,89.523 141.697 C 89.156 141.697,88.591 141.962,88.267 142.286 C 87.943 142.610,87.049 143.016,86.279 143.189 C 85.510 143.361,84.679 143.677,84.433 143.891 C 84.187 144.105,83.454 144.438,82.804 144.632 C 82.155 144.826,81.159 145.227,80.590 145.523 C 80.022 145.819,79.135 146.151,78.618 146.260 C 78.102 146.369,77.528 146.641,77.343 146.863 C 77.158 147.086,76.585 147.356,76.068 147.464 C 75.552 147.571,74.598 147.961,73.948 148.329 C 73.299 148.697,72.283 149.086,71.690 149.193 C 71.098 149.300,70.456 149.577,70.264 149.808 C 70.073 150.039,69.428 150.375,68.832 150.554 C 67.759 150.877,65.304 151.884,63.026 152.935 C 62.376 153.235,61.357 153.625,60.762 153.803 C 60.166 153.981,59.521 154.315,59.330 154.546 C 59.138 154.777,58.496 155.052,57.904 155.157 C 55.890 155.513,52.945 157.450,53.704 157.919 C 53.895 158.038,54.411 158.422,54.849 158.774 C 56.095 159.773,58.072 161.176,60.947 163.101 C 62.402 164.074,63.830 165.103,64.121 165.387 C 64.412 165.672,64.763 165.904,64.902 165.904 C 65.040 165.904,65.496 166.203,65.914 166.568 C 66.932 167.458,68.062 168.288,69.228 169.004 C 70.112 169.546,70.804 170.023,73.403 171.881 C 73.915 172.247,75.498 173.458,76.921 174.573 C 79.655 176.715,81.817 178.007,82.666 178.007 C 82.947 178.007,83.524 178.462,83.948 179.018 C 84.372 179.574,85.449 180.374,86.341 180.796 C 87.374 181.285,88.121 181.871,88.401 182.412 C 88.642 182.879,89.528 183.706,90.369 184.250 C 92.660 185.733,93.089 186.049,94.038 186.957 C 95.379 188.238,96.439 188.677,98.197 188.677 C 99.924 188.677,100.085 188.822,100.498 190.762 C 100.627 191.365,101.137 191.822,102.585 192.632 C 103.638 193.221,104.600 193.858,104.723 194.047 C 105.267 194.890,107.433 196.241,108.778 196.577 C 110.475 197.000,110.996 197.354,110.996 198.081 C 110.996 199.103,111.701 199.309,113.095 198.694 C 114.083 198.258,115.023 198.129,117.048 198.148 C 120.164 198.177,121.830 197.776,123.127 196.684 C 124.158 195.817,124.126 195.820,129.544 196.083 C 132.636 196.232,132.949 196.303,133.693 197.015 C 134.767 198.044,137.860 197.956,137.860 196.897 C 137.860 196.679,137.686 196.677,137.289 196.890 C 135.998 197.581,134.402 197.273,134.051 196.266 C 133.368 194.307,133.586 193.784,136.407 190.602 C 137.151 189.764,137.980 188.751,138.249 188.353 C 138.518 187.954,140.922 185.412,143.590 182.705 C 146.659 179.591,148.749 177.212,149.276 176.231 C 149.735 175.378,150.299 174.333,150.529 173.909 C 150.759 173.484,151.689 172.028,152.595 170.672 C 153.502 169.317,154.519 167.755,154.856 167.202 C 155.193 166.648,155.772 165.847,156.142 165.421 C 156.512 164.995,157.622 163.435,158.609 161.955 C 159.596 160.474,160.956 158.598,161.632 157.786 C 162.308 156.974,163.034 155.978,163.246 155.572 C 163.457 155.166,163.748 154.757,163.890 154.664 C 164.033 154.570,163.747 153.987,163.256 153.369 C 162.764 152.750,162.362 152.073,162.362 151.864 C 162.362 151.396,159.163 148.086,158.450 147.816 C 158.166 147.708,157.934 147.427,157.934 147.191 C 157.934 146.954,157.533 146.675,157.035 146.565 C 156.058 146.351,155.244 145.696,152.472 142.895 C 151.823 142.239,151.146 141.701,150.968 141.700 C 150.790 141.698,150.405 141.432,150.111 141.107 C 149.817 140.782,149.365 140.516,149.106 140.516 C 148.228 140.513,144.373 137.477,144.025 136.513 C 143.962 136.341,142.879 135.304,141.616 134.208 C 138.847 131.805,134.365 127.381,133.658 126.353 C 133.150 125.614,133.153 125.607,134.072 125.297 C 134.831 125.041,135.061 124.748,135.343 123.673 C 135.585 122.748,136.137 121.910,137.216 120.828 C 138.057 119.985,138.745 119.166,138.745 119.007 C 138.745 118.415,141.111 116.287,142.370 115.748 C 143.089 115.440,144.128 114.795,144.680 114.316 C 145.458 113.640,146.070 113.406,147.413 113.272 C 148.364 113.177,149.759 112.907,150.512 112.673 C 155.460 111.137,157.085 110.590,158.524 109.975 C 159.417 109.593,161.011 108.921,162.066 108.482 C 166.075 106.812,167.017 106.271,169.218 104.367 C 169.498 104.125,170.095 103.836,170.546 103.725 C 170.997 103.615,171.697 103.272,172.103 102.964 C 172.509 102.656,173.358 102.012,173.989 101.534 C 174.620 101.056,175.267 100.664,175.427 100.664 C 175.980 100.664,178.286 99.038,178.461 98.524 C 178.558 98.240,178.861 98.005,179.134 98.003 C 179.407 98.000,180.052 97.635,180.566 97.191 C 181.080 96.747,181.935 96.052,182.467 95.646 C 182.998 95.240,184.159 94.183,185.046 93.298 C 185.933 92.413,187.018 91.483,187.456 91.232 C 189.280 90.187,190.363 89.394,190.518 88.990 C 190.608 88.754,190.862 88.561,191.081 88.561 C 191.301 88.561,191.769 88.229,192.122 87.823 C 192.475 87.417,193.011 87.085,193.314 87.085 C 193.617 87.085,194.645 86.691,195.598 86.211 C 197.794 85.103,198.672 85.235,198.672 86.674 C 198.672 87.356,198.534 87.675,198.239 87.675 C 197.037 87.675,195.938 90.614,196.743 91.678 C 197.673 92.906,197.333 93.781,195.720 94.317 C 194.053 94.871,193.926 95.129,194.982 95.821 C 195.859 96.396,195.935 97.352,195.179 98.337 C 194.882 98.724,194.557 99.266,194.457 99.542 C 194.356 99.817,193.749 100.184,193.108 100.357 C 191.742 100.725,191.587 101.026,191.587 103.309 C 191.587 104.444,191.443 105.140,191.158 105.375 C 190.923 105.571,190.639 106.335,190.529 107.073 C 190.391 107.992,190.165 108.458,189.811 108.550 C 189.193 108.712,188.908 110.121,189.141 111.859 C 189.340 113.340,190.250 112.868,190.579 111.114 C 190.680 110.574,190.956 109.971,191.193 109.775 C 191.430 109.578,192.005 108.600,192.472 107.601 C 192.939 106.603,193.539 105.605,193.804 105.385 C 194.070 105.164,194.543 104.482,194.856 103.867 C 195.170 103.253,195.674 102.618,195.977 102.456 C 196.279 102.294,196.602 101.791,196.694 101.339 C 196.785 100.887,197.468 99.735,198.211 98.780 C 199.053 97.699,199.631 96.615,199.744 95.907 C 199.844 95.283,200.109 94.620,200.332 94.434 C 200.555 94.249,200.738 93.977,200.738 93.829 C 200.738 93.681,201.203 92.602,201.771 91.431 C 202.339 90.259,202.804 89.151,202.804 88.967 C 202.804 88.783,203.003 88.468,203.246 88.266 C 203.489 88.065,203.886 87.234,204.127 86.421 C 204.369 85.608,204.719 84.759,204.905 84.535 C 205.091 84.310,205.360 83.505,205.502 82.745 C 205.644 81.985,206.025 81.081,206.349 80.736 C 206.705 80.357,206.937 79.702,206.937 79.079 C 206.937 78.443,207.220 77.665,207.675 77.048 C 208.081 76.498,208.413 75.762,208.413 75.413 C 208.413 75.064,208.671 74.544,208.987 74.259 C 209.302 73.973,209.649 73.322,209.757 72.811 C 209.865 72.300,210.193 71.616,210.485 71.292 C 210.778 70.967,211.159 70.166,211.333 69.513 C 211.506 68.859,211.983 67.870,212.392 67.315 C 212.802 66.760,213.137 65.954,213.137 65.523 C 213.137 65.093,213.393 64.509,213.705 64.226 C 214.018 63.943,214.365 63.159,214.476 62.483 C 214.586 61.807,214.865 61.042,215.094 60.781 C 215.323 60.521,215.656 59.525,215.834 58.567 C 216.012 57.610,216.345 56.229,216.576 55.498 C 216.806 54.768,217.194 53.447,217.438 52.563 C 217.682 51.679,218.010 50.802,218.167 50.612 C 218.324 50.423,218.706 49.552,219.016 48.677 C 220.127 45.539,221.030 43.232,221.488 42.362 C 221.744 41.875,222.512 40.347,223.196 38.967 C 226.087 33.127,228.014 29.535,229.372 27.454 C 229.849 26.723,230.567 25.515,230.968 24.769 C 231.370 24.023,232.027 23.197,232.429 22.934 C 232.831 22.671,233.598 21.658,234.133 20.684 C 235.179 18.782,235.894 18.379,237.527 18.772 C 238.605 19.031,238.368 18.774,237.196 18.413 C 236.708 18.263,235.923 18.187,235.451 18.245 M214.022 51.987 C 214.022 53.164,213.860 53.686,213.284 54.371 C 212.819 54.924,212.546 55.613,212.546 56.236 C 212.546 56.839,212.276 57.550,211.854 58.059 C 211.473 58.517,211.079 59.321,210.977 59.843 C 210.876 60.366,210.543 61.043,210.238 61.349 C 209.918 61.668,209.595 62.556,209.479 63.435 C 209.269 65.014,208.912 65.207,208.589 63.917 C 208.375 63.066,209.113 61.060,209.597 61.176 C 209.799 61.225,209.976 60.475,210.068 59.188 C 210.149 58.052,210.408 56.827,210.644 56.466 C 210.880 56.105,211.217 55.109,211.394 54.252 C 212.081 50.920,214.022 49.247,214.022 51.987 M208.263 65.826 C 208.614 66.394,207.796 70.938,207.207 71.686 C 206.892 72.086,206.553 72.924,206.453 73.548 C 206.354 74.172,206.023 74.969,205.719 75.320 C 205.415 75.671,205.166 76.176,205.166 76.444 C 205.166 77.199,204.565 77.653,203.979 77.340 C 203.627 77.151,203.513 76.819,203.607 76.247 C 203.840 74.819,204.636 72.491,205.056 72.006 C 205.279 71.750,205.461 71.346,205.461 71.109 C 205.461 70.872,205.737 70.152,206.075 69.509 C 206.412 68.866,206.882 67.708,207.119 66.937 C 207.538 65.575,207.894 65.229,208.263 65.826 M179.483 87.566 C 179.483 87.936,177.585 91.080,177.138 91.449 C 176.270 92.166,171.364 95.479,170.480 95.945 C 169.993 96.202,169.328 96.558,169.004 96.737 C 166.605 98.057,160.936 99.052,159.329 98.435 C 158.786 98.227,160.289 96.531,161.017 96.531 C 161.284 96.531,161.841 96.194,162.253 95.781 C 162.666 95.368,163.372 94.957,163.822 94.867 C 164.272 94.777,165.011 94.384,165.465 93.994 C 165.920 93.603,166.516 93.284,166.792 93.284 C 167.067 93.284,167.917 92.952,168.680 92.546 C 169.444 92.140,170.386 91.808,170.775 91.808 C 171.164 91.808,171.841 91.476,172.279 91.070 C 172.717 90.664,173.378 90.332,173.747 90.332 C 174.117 90.332,174.814 90.000,175.297 89.594 C 175.779 89.188,176.420 88.854,176.722 88.852 C 177.859 88.844,178.598 88.483,178.598 87.936 C 178.598 87.630,178.797 87.380,179.041 87.380 C 179.284 87.380,179.483 87.464,179.483 87.566 M187.452 96.386 C 186.988 96.945,187.762 97.309,188.516 96.887 C 188.984 96.625,188.976 96.577,188.418 96.278 C 187.947 96.026,187.731 96.050,187.452 96.386 M187.749 114.868 C 187.749 115.457,187.877 115.727,188.118 115.647 C 188.670 115.465,188.737 114.346,188.207 114.143 C 187.855 114.007,187.749 114.175,187.749 114.868 M186.166 116.753 C 186.033 117.101,185.429 117.196,183.342 117.196 C 181.883 117.196,179.670 117.347,178.425 117.532 C 175.188 118.014,176.202 118.383,181.656 118.710 C 186.578 119.005,187.159 118.826,187.159 117.015 C 187.159 116.233,186.439 116.043,186.166 116.753 M183.726 118.123 C 182.984 118.290,181.771 118.292,180.626 118.128 C 178.774 117.863,178.792 117.859,181.845 117.854 C 184.422 117.850,184.739 117.895,183.726 118.123 M167.970 119.376 C 167.970 119.623,169.750 119.734,170.104 119.510 C 170.329 119.366,169.978 119.269,169.225 119.267 C 168.535 119.264,167.970 119.313,167.970 119.376 M182.435 122.881 C 181.042 123.244,180.369 123.907,180.369 124.917 C 180.369 125.379,180.253 125.756,180.112 125.756 C 179.971 125.756,179.785 126.379,179.699 127.141 C 179.614 127.902,179.352 128.666,179.118 128.838 C 178.883 129.010,178.599 129.850,178.486 130.705 C 178.226 132.674,178.045 133.137,177.533 133.137 C 177.235 133.137,177.122 133.552,177.122 134.642 L 177.122 136.147 178.449 134.568 C 179.179 133.700,179.910 132.506,180.074 131.916 C 180.239 131.326,180.563 130.686,180.795 130.494 C 181.027 130.301,181.304 129.721,181.411 129.205 C 181.518 128.688,181.917 127.801,182.298 127.232 C 183.907 124.831,183.981 122.478,182.435 122.881 M135.646 125.461 C 135.528 125.652,135.564 125.941,135.727 126.103 C 135.924 126.300,136.093 126.283,136.236 126.052 C 136.354 125.861,136.318 125.572,136.155 125.410 C 135.958 125.213,135.789 125.230,135.646 125.461 " stroke="none" fill="#468ebf" fill-rule="evenodd"></path><path id="path3" d="M235.561 18.789 C 235.312 18.857,234.669 19.709,234.133 20.684 C 233.598 21.658,232.831 22.671,232.429 22.934 C 232.027 23.197,231.370 24.023,230.968 24.769 C 230.567 25.515,229.849 26.723,229.372 27.454 C 228.014 29.535,226.087 33.127,223.196 38.967 C 222.512 40.347,221.744 41.875,221.488 42.362 C 221.030 43.232,220.127 45.539,219.016 48.677 C 218.706 49.552,218.324 50.423,218.167 50.612 C 218.010 50.802,217.682 51.679,217.438 52.563 C 217.194 53.447,216.806 54.768,216.576 55.498 C 216.345 56.229,216.012 57.610,215.834 58.567 C 215.656 59.525,215.323 60.521,215.094 60.781 C 214.865 61.042,214.586 61.807,214.476 62.483 C 214.365 63.159,214.018 63.943,213.705 64.226 C 213.393 64.509,213.137 65.093,213.137 65.523 C 213.137 65.954,212.802 66.760,212.392 67.315 C 211.983 67.870,211.506 68.859,211.333 69.513 C 211.159 70.166,210.778 70.967,210.485 71.292 C 210.193 71.616,209.865 72.300,209.757 72.811 C 209.649 73.322,209.302 73.973,208.987 74.259 C 208.671 74.544,208.413 75.064,208.413 75.413 C 208.413 75.762,208.081 76.498,207.675 77.048 C 207.220 77.665,206.937 78.443,206.937 79.079 C 206.937 79.702,206.705 80.357,206.349 80.736 C 206.025 81.081,205.644 81.985,205.502 82.745 C 205.360 83.505,205.091 84.310,204.905 84.535 C 204.719 84.759,204.369 85.608,204.127 86.421 C 203.886 87.234,203.489 88.065,203.246 88.266 C 203.003 88.468,202.804 88.783,202.804 88.967 C 202.804 89.151,202.339 90.259,201.771 91.431 C 201.203 92.602,200.738 93.681,200.738 93.829 C 200.738 93.977,200.555 94.249,200.332 94.434 C 200.109 94.620,199.844 95.283,199.744 95.907 C 199.631 96.615,199.053 97.699,198.211 98.780 C 197.468 99.735,196.785 100.887,196.694 101.339 C 196.602 101.791,196.279 102.294,195.977 102.456 C 195.674 102.618,195.170 103.253,194.856 103.867 C 194.543 104.482,194.070 105.164,193.804 105.385 C 193.539 105.605,192.939 106.603,192.472 107.601 C 192.005 108.600,191.430 109.578,191.193 109.775 C 190.956 109.971,190.680 110.574,190.579 111.114 C 190.250 112.868,189.340 113.340,189.141 111.859 C 188.908 110.121,189.193 108.712,189.811 108.550 C 190.165 108.458,190.391 107.992,190.529 107.073 C 190.639 106.335,190.923 105.571,191.158 105.375 C 191.443 105.140,191.587 104.444,191.587 103.309 C 191.587 101.026,191.742 100.725,193.108 100.357 C 193.749 100.184,194.356 99.817,194.457 99.542 C 194.557 99.266,194.882 98.724,195.179 98.337 C 195.935 97.352,195.859 96.396,194.982 95.821 C 193.926 95.129,194.053 94.871,195.720 94.317 C 197.333 93.781,197.673 92.906,196.743 91.678 C 195.938 90.614,197.037 87.675,198.239 87.675 C 198.534 87.675,198.672 87.356,198.672 86.674 C 198.672 85.235,197.794 85.103,195.598 86.211 C 194.645 86.691,193.617 87.085,193.314 87.085 C 193.011 87.085,192.475 87.417,192.122 87.823 C 191.769 88.229,191.301 88.561,191.081 88.561 C 190.862 88.561,190.608 88.754,190.518 88.990 C 190.363 89.394,189.280 90.187,187.456 91.232 C 187.018 91.483,185.933 92.413,185.046 93.298 C 184.159 94.183,182.998 95.240,182.467 95.646 C 181.935 96.052,181.080 96.747,180.566 97.191 C 180.052 97.635,179.407 98.000,179.134 98.003 C 178.861 98.005,178.558 98.240,178.461 98.524 C 178.286 99.038,175.980 100.664,175.427 100.664 C 175.267 100.664,174.620 101.056,173.989 101.534 C 173.358 102.012,172.509 102.656,172.103 102.964 C 171.697 103.272,170.997 103.615,170.546 103.725 C 170.095 103.836,169.498 104.125,169.218 104.367 C 167.017 106.271,166.075 106.812,162.066 108.482 C 161.011 108.921,159.417 109.593,158.524 109.975 C 157.085 110.590,155.460 111.137,150.512 112.673 C 149.759 112.907,148.364 113.177,147.413 113.272 C 146.070 113.406,145.458 113.640,144.680 114.316 C 144.128 114.795,143.089 115.440,142.370 115.748 C 141.111 116.287,138.745 118.415,138.745 119.007 C 138.745 119.166,138.057 119.985,137.216 120.828 C 136.137 121.910,135.585 122.748,135.343 123.673 C 135.061 124.748,134.831 125.041,134.072 125.297 C 133.153 125.607,133.150 125.614,133.658 126.353 C 134.365 127.381,138.847 131.805,141.616 134.208 C 142.879 135.304,143.962 136.341,144.025 136.513 C 144.373 137.477,148.228 140.513,149.106 140.516 C 149.365 140.516,149.817 140.782,150.111 141.107 C 150.405 141.432,150.790 141.698,150.968 141.700 C 151.146 141.701,151.823 142.239,152.472 142.895 C 155.244 145.696,156.058 146.351,157.035 146.565 C 157.533 146.675,157.934 146.954,157.934 147.191 C 157.934 147.427,158.166 147.708,158.450 147.816 C 159.163 148.086,162.362 151.396,162.362 151.864 C 162.362 152.073,162.764 152.750,163.256 153.369 C 163.747 153.987,164.033 154.570,163.890 154.664 C 163.748 154.757,163.457 155.166,163.246 155.572 C 163.034 155.978,162.308 156.974,161.632 157.786 C 160.956 158.598,159.596 160.474,158.609 161.955 C 157.622 163.435,156.512 164.995,156.142 165.421 C 155.772 165.847,155.193 166.648,154.856 167.202 C 154.519 167.755,153.502 169.317,152.595 170.672 C 151.689 172.028,150.759 173.484,150.529 173.909 C 150.299 174.333,149.735 175.378,149.276 176.231 C 148.749 177.212,146.659 179.591,143.590 182.705 C 140.922 185.412,138.518 187.954,138.249 188.353 C 137.980 188.751,137.151 189.764,136.407 190.602 C 133.586 193.784,133.368 194.307,134.051 196.266 C 134.391 197.240,136.166 197.605,137.245 196.922 C 137.489 196.767,137.949 196.766,138.352 196.919 C 139.253 197.262,140.074 196.907,141.605 195.515 C 142.284 194.897,143.473 193.860,144.246 193.210 C 145.019 192.561,145.963 191.731,146.345 191.365 C 146.726 191.000,147.135 190.701,147.254 190.701 C 147.459 190.701,150.035 188.838,150.994 187.996 C 151.241 187.779,151.850 187.269,152.347 186.863 C 154.073 185.455,158.011 181.336,158.486 180.443 C 158.681 180.077,159.039 179.779,159.282 179.779 C 159.525 179.779,159.812 179.546,159.921 179.262 C 160.029 178.978,160.722 178.149,161.461 177.420 C 162.200 176.691,163.639 175.097,164.658 173.878 C 165.677 172.658,166.773 171.350,167.093 170.971 C 167.413 170.592,167.675 170.097,167.675 169.871 C 167.675 169.645,168.007 169.243,168.413 168.977 C 168.819 168.711,169.151 168.360,169.151 168.197 C 169.151 168.034,169.550 167.447,170.037 166.892 C 170.524 166.337,170.923 165.721,170.923 165.522 C 170.923 165.323,171.188 164.995,171.513 164.792 C 171.838 164.589,172.103 164.167,172.103 163.855 C 172.103 163.538,172.376 163.200,172.721 163.091 C 173.060 162.983,173.517 162.466,173.737 161.941 C 173.956 161.416,174.343 160.814,174.595 160.605 C 174.848 160.395,175.055 160.034,175.055 159.803 C 175.055 159.572,175.391 159.047,175.801 158.637 C 176.503 157.935,177.087 156.960,178.108 154.786 C 178.349 154.273,178.823 153.575,179.162 153.236 C 179.501 152.897,179.779 152.377,179.779 152.081 C 179.779 151.785,180.111 151.230,180.517 150.849 C 180.923 150.467,181.255 149.989,181.255 149.787 C 181.255 149.584,181.587 149.023,181.993 148.541 C 182.399 148.059,182.731 147.461,182.731 147.213 C 182.731 146.964,183.063 146.366,183.469 145.884 C 183.875 145.402,184.207 144.798,184.207 144.543 C 184.207 144.288,184.605 143.672,185.092 143.173 C 185.617 142.637,185.978 141.955,185.978 141.500 C 185.978 141.060,186.293 140.440,186.716 140.048 C 187.195 139.604,187.454 139.045,187.454 138.455 C 187.454 137.859,187.632 137.480,187.970 137.355 C 188.645 137.107,188.920 136.682,188.925 135.879 C 188.928 135.520,189.183 134.988,189.492 134.698 C 189.801 134.407,190.199 133.626,190.376 132.962 C 190.553 132.298,190.965 131.513,191.290 131.219 C 191.622 130.918,191.882 130.309,191.882 129.830 C 191.882 129.322,192.170 128.689,192.594 128.265 C 192.985 127.874,193.398 127.116,193.511 126.581 C 193.624 126.046,193.954 125.343,194.244 125.018 C 194.533 124.694,194.868 123.963,194.988 123.395 C 195.108 122.827,195.521 122.069,195.906 121.712 C 196.344 121.304,196.605 120.728,196.605 120.169 C 196.605 119.536,196.826 119.131,197.361 118.781 C 197.883 118.438,198.101 118.049,198.067 117.519 C 197.985 116.232,198.055 116.034,198.819 115.369 C 199.356 114.902,199.557 114.432,199.557 113.643 C 199.557 112.895,199.786 112.311,200.295 111.762 C 200.786 111.232,201.033 110.625,201.033 109.946 C 201.033 109.226,201.250 108.737,201.771 108.284 C 202.277 107.845,202.509 107.339,202.509 106.678 C 202.509 106.072,202.770 105.432,203.210 104.957 C 203.595 104.541,203.992 103.693,204.091 103.073 C 204.190 102.453,204.533 101.644,204.853 101.276 C 205.172 100.907,205.521 100.027,205.627 99.320 C 205.761 98.423,206.033 97.894,206.526 97.571 C 207.038 97.236,207.232 96.836,207.232 96.122 C 207.232 95.579,207.479 94.818,207.780 94.431 C 208.081 94.044,208.493 93.030,208.695 92.177 C 208.897 91.325,209.161 90.627,209.281 90.627 C 209.638 90.627,210.185 89.189,210.185 88.250 C 210.185 87.707,210.441 87.153,210.862 86.787 C 211.288 86.417,211.566 85.811,211.610 85.159 C 211.695 83.892,212.139 82.657,212.510 82.657 C 212.873 82.657,213.448 80.976,213.256 80.476 C 213.173 80.260,213.425 79.699,213.816 79.230 C 214.261 78.696,214.585 77.849,214.682 76.967 C 214.793 75.953,215.054 75.357,215.610 74.841 C 216.199 74.295,216.384 73.839,216.384 72.929 C 216.384 72.095,216.578 71.540,217.028 71.090 C 217.481 70.637,217.712 69.973,217.805 68.852 C 217.912 67.559,218.062 67.202,218.597 66.958 C 219.139 66.711,219.292 66.334,219.445 64.869 C 219.576 63.611,219.794 62.967,220.180 62.697 C 220.575 62.420,220.774 61.798,220.896 60.457 C 221.026 59.023,221.203 58.508,221.676 58.194 C 222.170 57.866,222.288 57.479,222.288 56.187 C 222.288 54.854,222.417 54.456,223.059 53.814 C 223.692 53.182,223.848 52.718,223.923 51.250 C 223.995 49.852,224.152 49.347,224.639 48.953 C 225.063 48.609,225.368 47.850,225.589 46.585 C 225.814 45.297,226.128 44.523,226.610 44.073 C 227.120 43.597,227.306 43.103,227.306 42.228 C 227.306 41.571,227.436 41.033,227.594 41.033 C 228.057 41.033,228.782 39.374,228.782 38.313 C 228.782 37.583,228.950 37.262,229.446 37.044 C 229.947 36.825,230.134 36.461,230.205 35.572 C 230.259 34.897,230.559 34.114,230.904 33.745 C 231.237 33.389,231.626 32.469,231.770 31.699 C 231.914 30.930,232.290 30.060,232.606 29.765 C 232.989 29.408,233.247 28.640,233.381 27.456 C 233.491 26.481,233.682 25.683,233.805 25.683 C 234.160 25.683,234.982 23.750,234.982 22.913 C 234.982 22.371,235.173 22.101,235.646 21.978 C 236.666 21.712,238.377 19.108,237.706 18.842 C 237.146 18.620,236.267 18.598,235.561 18.789 M212.430 51.587 C 212.037 52.196,211.571 53.395,211.394 54.252 C 211.217 55.109,210.880 56.105,210.644 56.466 C 210.408 56.827,210.149 58.052,210.068 59.188 C 209.976 60.475,209.799 61.225,209.597 61.176 C 209.113 61.060,208.375 63.066,208.589 63.917 C 208.912 65.207,209.269 65.014,209.479 63.435 C 209.595 62.556,209.918 61.668,210.238 61.349 C 210.543 61.043,210.876 60.366,210.977 59.843 C 211.079 59.321,211.473 58.517,211.854 58.059 C 212.276 57.550,212.546 56.839,212.546 56.236 C 212.546 55.613,212.819 54.924,213.284 54.371 C 213.860 53.686,214.022 53.164,214.022 51.987 C 214.022 50.120,213.467 49.980,212.430 51.587 M207.119 66.937 C 206.882 67.708,206.412 68.866,206.075 69.509 C 205.737 70.152,205.461 70.872,205.461 71.109 C 205.461 71.346,205.279 71.750,205.056 72.006 C 204.636 72.491,203.840 74.819,203.607 76.247 C 203.513 76.819,203.627 77.151,203.979 77.340 C 204.565 77.653,205.166 77.199,205.166 76.444 C 205.166 76.176,205.415 75.671,205.719 75.320 C 206.023 74.969,206.354 74.172,206.453 73.548 C 206.553 72.924,206.892 72.086,207.207 71.686 C 207.796 70.938,208.614 66.394,208.263 65.826 C 207.894 65.229,207.538 65.575,207.119 66.937 M178.598 87.936 C 178.598 88.483,177.859 88.844,176.722 88.852 C 176.420 88.854,175.779 89.188,175.297 89.594 C 174.814 90.000,174.117 90.332,173.747 90.332 C 173.378 90.332,172.717 90.664,172.279 91.070 C 171.841 91.476,171.164 91.808,170.775 91.808 C 170.386 91.808,169.444 92.140,168.680 92.546 C 167.917 92.952,167.067 93.284,166.792 93.284 C 166.516 93.284,165.920 93.603,165.465 93.994 C 165.011 94.384,164.272 94.777,163.822 94.867 C 163.372 94.957,162.666 95.368,162.253 95.781 C 161.841 96.194,161.284 96.531,161.017 96.531 C 160.289 96.531,158.786 98.227,159.329 98.435 C 160.936 99.052,166.605 98.057,169.004 96.737 C 169.328 96.558,169.993 96.202,170.480 95.945 C 171.364 95.479,176.270 92.166,177.138 91.449 C 178.269 90.515,179.735 87.380,179.041 87.380 C 178.797 87.380,178.598 87.630,178.598 87.936 M188.516 96.887 C 187.762 97.309,186.988 96.945,187.452 96.386 C 187.731 96.050,187.947 96.026,188.418 96.278 C 188.976 96.577,188.984 96.625,188.516 96.887 M188.576 114.922 C 188.427 115.929,187.749 115.884,187.749 114.868 C 187.749 114.175,187.855 114.007,188.207 114.143 C 188.464 114.241,188.627 114.584,188.576 114.922 M187.159 117.015 C 187.159 118.826,186.578 119.005,181.656 118.710 C 176.202 118.383,175.188 118.014,178.425 117.532 C 179.670 117.347,181.883 117.196,183.342 117.196 C 185.429 117.196,186.033 117.101,186.166 116.753 C 186.439 116.043,187.159 116.233,187.159 117.015 M170.104 119.510 C 169.750 119.734,167.970 119.623,167.970 119.376 C 167.970 119.313,168.535 119.264,169.225 119.267 C 169.978 119.269,170.329 119.366,170.104 119.510 M183.331 124.827 C 183.143 125.582,182.679 126.664,182.298 127.232 C 181.917 127.801,181.518 128.688,181.411 129.205 C 181.304 129.721,181.027 130.301,180.795 130.494 C 180.563 130.686,180.239 131.326,180.074 131.916 C 179.910 132.506,179.179 133.700,178.449 134.568 L 177.122 136.147 177.122 134.642 C 177.122 133.552,177.235 133.137,177.533 133.137 C 178.045 133.137,178.226 132.674,178.486 130.705 C 178.601 129.839,178.897 129.000,179.155 128.811 C 179.574 128.502,179.649 128.027,179.765 124.943 C 179.787 124.357,181.180 123.278,182.376 122.922 C 183.700 122.527,183.835 122.796,183.331 124.827 M136.236 126.052 C 136.093 126.283,135.924 126.300,135.727 126.103 C 135.564 125.941,135.528 125.652,135.646 125.461 C 135.789 125.230,135.958 125.213,136.155 125.410 C 136.318 125.572,136.354 125.861,136.236 126.052 " stroke="none" fill="#3e4869" fill-rule="evenodd"></path><path id="path4" d="M237.638 18.491 C 237.882 18.598,239.185 19.199,240.535 19.828 C 241.885 20.457,243.120 20.890,243.281 20.791 C 243.922 20.395,247.675 22.852,247.675 23.668 C 247.675 23.796,248.672 24.880,249.889 26.078 C 251.107 27.276,252.103 28.392,252.103 28.557 C 252.103 28.722,252.312 29.031,252.568 29.243 C 252.823 29.455,253.307 30.169,253.643 30.829 C 253.980 31.489,254.501 32.203,254.803 32.415 C 255.104 32.627,255.351 32.976,255.351 33.191 C 255.351 33.405,255.557 33.753,255.810 33.962 C 256.063 34.172,256.465 34.809,256.702 35.377 C 256.939 35.945,257.379 36.582,257.679 36.792 C 257.978 37.002,258.304 37.677,258.403 38.292 C 258.510 38.953,258.827 39.561,259.181 39.781 C 259.510 39.985,259.779 40.399,259.779 40.699 C 259.779 41.000,260.097 41.715,260.486 42.289 C 260.875 42.862,261.288 43.777,261.404 44.323 C 261.519 44.868,261.847 45.579,262.133 45.904 C 262.419 46.229,262.747 46.893,262.861 47.380 C 262.976 47.867,263.309 48.531,263.602 48.856 C 263.894 49.181,264.219 49.926,264.324 50.513 C 264.428 51.100,264.767 51.809,265.077 52.089 C 265.386 52.369,265.727 53.114,265.833 53.745 C 265.940 54.375,266.265 55.193,266.555 55.563 C 266.846 55.933,267.181 56.815,267.300 57.522 C 267.419 58.229,267.773 59.064,268.086 59.378 C 268.400 59.692,268.764 60.508,268.894 61.192 C 269.025 61.876,269.418 62.965,269.769 63.612 C 270.119 64.259,270.406 65.079,270.406 65.434 C 270.406 65.789,270.718 66.456,271.099 66.915 C 271.516 67.417,271.870 68.337,271.987 69.225 C 272.094 70.037,272.425 71.033,272.722 71.439 C 273.020 71.845,273.337 72.735,273.428 73.418 C 273.519 74.100,273.857 75.030,274.179 75.484 C 274.501 75.938,274.928 77.102,275.128 78.069 C 275.328 79.037,275.659 80.100,275.864 80.431 C 276.069 80.762,276.396 81.697,276.590 82.509 C 276.785 83.321,277.120 84.185,277.335 84.428 C 277.549 84.672,277.883 85.668,278.078 86.642 C 278.272 87.616,278.634 88.733,278.883 89.123 C 279.132 89.514,279.520 90.623,279.745 91.587 C 279.970 92.552,280.352 93.624,280.594 93.969 C 280.835 94.314,281.033 94.937,281.033 95.354 C 281.033 95.770,281.305 96.638,281.637 97.281 C 281.970 97.924,282.426 99.227,282.651 100.177 C 282.877 101.126,283.255 102.123,283.491 102.391 C 283.728 102.659,284.014 103.573,284.128 104.422 C 284.241 105.272,284.589 106.290,284.900 106.686 C 285.211 107.082,285.545 108.047,285.641 108.832 C 285.737 109.616,286.059 110.605,286.356 111.030 C 286.653 111.454,286.984 112.318,287.092 112.949 C 287.199 113.580,287.546 114.462,287.861 114.910 C 288.176 115.358,288.573 116.473,288.742 117.390 C 288.911 118.306,289.305 119.532,289.617 120.114 C 289.929 120.696,290.185 121.453,290.185 121.797 C 290.185 122.140,290.494 123.006,290.872 123.720 C 291.250 124.434,291.720 125.662,291.916 126.448 C 292.112 127.234,292.455 128.164,292.677 128.514 C 292.898 128.865,293.173 129.749,293.287 130.480 C 293.401 131.210,293.732 132.074,294.024 132.399 C 294.315 132.723,294.707 133.743,294.894 134.664 C 295.082 135.585,295.421 136.492,295.648 136.680 C 295.874 136.869,296.150 137.643,296.261 138.401 C 296.371 139.158,296.776 140.375,297.161 141.105 C 297.545 141.834,297.860 142.777,297.860 143.201 C 297.860 143.625,298.192 144.596,298.598 145.359 C 299.004 146.123,299.336 146.986,299.336 147.278 C 299.336 147.570,299.668 148.433,300.074 149.197 C 300.480 149.960,300.812 150.901,300.812 151.288 C 300.812 152.169,301.280 153.426,301.803 153.949 C 302.022 154.168,302.287 154.972,302.392 155.736 C 302.497 156.500,302.832 157.539,303.137 158.046 C 303.442 158.552,303.784 159.498,303.897 160.148 C 304.010 160.797,304.334 161.727,304.618 162.214 C 304.901 162.701,305.293 163.738,305.490 164.519 C 305.687 165.299,306.109 166.427,306.429 167.024 C 306.749 167.621,307.011 168.477,307.011 168.926 C 307.011 169.374,307.300 170.031,307.654 170.384 C 308.034 170.765,308.391 171.623,308.528 172.488 C 308.655 173.292,308.956 174.167,309.197 174.433 C 309.437 174.700,309.782 175.577,309.963 176.384 C 310.144 177.190,310.485 178.064,310.722 178.326 C 310.959 178.587,311.356 179.582,311.604 180.536 C 311.853 181.490,312.235 182.474,312.453 182.722 C 312.672 182.970,312.943 183.734,313.055 184.419 C 313.167 185.105,313.516 185.992,313.830 186.391 C 314.144 186.790,314.516 187.729,314.655 188.477 C 314.795 189.225,315.110 190.064,315.355 190.343 C 315.601 190.621,315.891 191.314,316.000 191.882 C 316.264 193.251,316.771 194.539,317.046 194.539 C 317.168 194.539,317.356 195.090,317.464 195.763 C 317.571 196.437,317.970 197.357,318.350 197.809 C 318.730 198.260,319.127 199.206,319.233 199.910 C 319.339 200.614,319.686 201.586,320.006 202.071 C 320.325 202.556,320.587 203.166,320.588 203.427 C 320.590 203.689,320.923 204.392,321.328 204.990 C 321.734 205.588,322.066 206.318,322.066 206.611 C 322.066 206.905,322.376 207.729,322.755 208.443 C 323.133 209.157,323.531 210.185,323.638 210.726 C 323.745 211.267,324.086 212.066,324.395 212.500 C 324.704 212.934,325.105 213.837,325.285 214.507 C 325.466 215.177,325.808 215.886,326.046 216.084 C 326.284 216.281,326.561 216.928,326.662 217.520 C 326.763 218.113,327.079 218.932,327.366 219.342 C 329.127 221.853,327.306 223.634,325.431 221.235 C 325.252 221.006,324.650 220.628,324.094 220.396 C 323.171 220.010,317.301 214.550,316.605 213.430 C 315.098 211.002,314.402 210.142,313.579 209.691 C 313.052 209.401,312.620 209.060,312.620 208.933 C 312.620 208.805,311.742 207.806,310.669 206.712 C 309.595 205.618,308.367 204.258,307.938 203.690 C 307.510 203.122,306.926 202.483,306.642 202.271 C 306.358 202.059,306.125 201.717,306.125 201.511 C 306.125 201.305,305.793 200.824,305.387 200.443 C 304.982 200.061,304.649 199.578,304.649 199.368 C 304.649 199.159,304.273 198.551,303.814 198.018 C 303.354 197.484,302.892 196.812,302.787 196.525 C 302.246 195.039,300.812 195.889,300.812 197.695 C 300.812 198.698,300.414 199.009,300.118 198.238 C 300.027 198.000,299.481 197.608,298.906 197.368 C 298.331 197.127,297.860 196.807,297.860 196.656 C 297.860 196.505,297.428 196.206,296.900 195.992 C 296.373 195.777,295.767 195.362,295.555 195.070 C 295.343 194.778,295.010 194.539,294.815 194.539 C 294.620 194.539,293.996 193.993,293.429 193.325 C 290.168 189.485,289.148 188.917,288.508 190.586 C 288.361 190.969,288.281 190.968,287.849 190.578 C 287.579 190.333,286.865 189.927,286.262 189.675 C 285.659 189.423,285.166 189.091,285.166 188.936 C 285.166 188.314,283.777 187.969,281.476 188.019 C 279.166 188.070,279.061 188.044,278.732 187.320 C 278.543 186.907,278.235 186.568,278.048 186.568 C 277.860 186.568,277.398 186.236,277.022 185.830 C 276.646 185.424,276.009 185.092,275.607 185.092 C 274.675 185.092,273.653 183.821,273.653 182.663 C 273.653 182.182,273.469 181.436,273.244 181.005 C 272.756 180.072,272.180 177.109,272.170 175.480 C 272.166 174.841,271.896 173.321,271.570 172.103 C 271.243 170.886,270.918 169.092,270.848 168.118 C 270.634 165.174,270.147 162.002,269.673 160.470 C 269.427 159.673,269.225 158.473,269.225 157.803 C 269.225 157.134,269.026 155.860,268.783 154.972 C 267.850 151.563,266.885 144.529,267.079 142.546 C 267.168 141.635,267.052 140.872,266.731 140.251 C 265.881 138.608,265.532 134.627,266.090 132.947 C 266.646 131.275,266.400 129.933,265.328 128.793 C 264.611 128.030,264.606 127.944,264.960 122.868 C 265.141 120.287,265.105 120.032,264.352 118.493 C 263.608 116.972,263.555 116.614,263.597 113.348 C 263.642 109.911,263.240 108.044,262.456 108.044 C 262.313 108.044,262.150 106.106,262.094 103.737 C 262.000 99.745,261.946 99.393,261.355 98.915 C 260.780 98.450,260.707 98.061,260.617 94.979 C 260.527 91.915,260.448 91.485,259.852 90.853 C 259.266 90.229,259.188 89.837,259.187 87.509 C 259.185 84.715,258.799 82.705,258.170 82.210 C 257.911 82.006,257.749 80.768,257.662 78.325 C 257.543 74.977,257.479 74.660,256.702 73.538 C 256.151 72.744,255.926 72.120,256.036 71.697 C 256.276 70.779,255.649 66.094,255.186 65.351 C 254.326 63.971,253.841 61.140,254.038 58.650 C 254.220 56.342,254.189 56.160,253.314 54.509 C 252.251 52.503,252.164 51.430,252.989 50.480 C 253.757 49.594,253.734 49.357,252.838 48.948 C 252.151 48.635,252.110 48.506,252.285 47.189 C 252.494 45.606,251.991 44.472,250.930 44.135 C 250.601 44.031,250.332 43.717,250.332 43.437 C 250.332 42.935,249.866 41.940,248.614 39.770 C 248.260 39.156,247.970 38.480,247.970 38.268 C 247.970 37.706,245.370 32.591,244.875 32.181 C 244.052 31.497,242.355 30.767,242.195 31.027 C 242.105 31.173,241.449 31.292,240.737 31.292 C 238.680 31.292,237.856 32.202,238.285 34.002 C 238.574 35.213,238.536 35.566,237.979 36.861 C 237.629 37.673,237.344 38.911,237.346 39.612 C 237.351 42.143,236.416 52.157,235.959 54.465 C 235.135 58.620,234.985 60.711,234.592 73.519 C 234.380 80.426,234.102 86.246,233.974 86.452 C 233.720 86.864,233.225 113.101,233.083 133.743 C 232.991 146.976,232.930 147.907,232.092 148.861 C 231.574 149.451,230.766 155.230,231.032 156.443 C 231.940 160.586,233.064 160.008,233.417 155.218 C 233.606 152.650,233.639 152.542,233.931 153.556 C 234.103 154.152,234.519 154.949,234.856 155.327 C 235.324 155.853,235.419 156.223,235.260 156.900 C 235.145 157.387,235.036 158.866,235.016 160.185 C 234.992 161.861,234.855 162.689,234.563 162.932 C 234.040 163.366,233.872 165.348,233.627 173.984 C 233.459 179.887,233.369 180.801,232.913 181.257 C 232.248 181.922,231.910 184.711,232.184 187.273 C 232.386 189.159,232.372 189.216,231.620 189.559 C 230.794 189.935,230.760 190.085,230.722 193.590 C 230.702 195.367,230.521 195.757,229.559 196.096 C 229.418 196.145,229.268 196.885,229.227 197.739 C 229.176 198.817,228.969 199.490,228.550 199.941 C 228.219 200.298,227.867 201.122,227.769 201.771 C 227.651 202.548,227.339 203.137,226.857 203.493 C 226.386 203.842,226.125 204.324,226.125 204.850 C 226.125 205.298,225.872 205.895,225.562 206.175 C 225.251 206.456,224.919 206.999,224.823 207.382 C 224.727 207.765,224.383 208.163,224.058 208.266 C 223.734 208.369,223.469 208.572,223.469 208.716 C 223.469 208.861,223.132 209.292,222.720 209.674 C 222.308 210.056,221.869 210.759,221.744 211.236 C 221.619 211.713,221.220 212.236,220.857 212.399 C 220.494 212.561,220.124 212.981,220.036 213.332 C 219.947 213.685,219.556 214.051,219.163 214.150 C 218.709 214.264,218.450 214.541,218.450 214.913 C 218.450 215.295,218.252 215.498,217.877 215.498 C 217.067 215.498,216.896 215.916,216.821 218.069 C 216.767 219.624,216.642 220.044,216.127 220.405 C 215.672 220.724,215.498 221.157,215.498 221.975 C 215.498 222.870,215.371 223.138,214.886 223.265 C 214.549 223.353,214.201 223.700,214.113 224.037 C 213.971 224.583,213.729 224.649,211.902 224.649 C 209.850 224.649,208.768 224.975,208.325 225.726 C 208.145 226.030,207.127 226.127,204.044 226.133 C 199.618 226.140,197.850 226.416,197.286 227.187 C 196.962 227.630,196.623 227.659,194.474 227.433 C 190.324 226.996,186.292 227.095,184.797 227.670 C 184.066 227.952,182.672 228.311,181.697 228.468 C 180.723 228.625,178.465 229.022,176.679 229.350 C 172.960 230.032,170.031 230.134,169.496 229.600 C 169.208 229.312,169.549 229.159,171.135 228.867 C 172.236 228.664,173.284 228.296,173.464 228.049 C 173.682 227.751,174.325 227.593,175.383 227.577 C 178.548 227.527,180.423 227.157,180.978 226.471 C 181.479 225.852,181.740 225.821,187.014 225.753 C 192.331 225.685,192.544 225.659,193.063 225.018 C 193.493 224.487,193.900 224.354,195.105 224.354 C 196.363 224.354,196.758 224.214,197.505 223.499 C 198.086 222.945,198.601 222.697,198.974 222.795 C 199.948 223.049,201.039 222.606,201.332 221.837 C 201.492 221.416,201.845 221.107,202.167 221.107 C 202.474 221.107,203.042 220.862,203.429 220.562 C 203.816 220.262,204.467 219.935,204.876 219.835 C 205.344 219.721,205.743 219.323,205.957 218.757 C 206.185 218.152,206.496 217.860,206.912 217.860 C 207.250 217.860,207.783 217.605,208.094 217.293 C 208.406 216.981,208.971 216.682,209.349 216.629 C 209.727 216.575,210.169 216.231,210.329 215.864 C 210.490 215.498,210.849 215.126,211.126 215.038 C 211.403 214.950,211.709 214.631,211.805 214.329 C 211.900 214.027,212.306 213.566,212.705 213.304 C 213.105 213.042,213.432 212.684,213.432 212.507 C 213.432 212.061,216.551 209.084,217.253 208.861 C 217.570 208.761,217.907 208.434,218.002 208.135 C 218.097 207.836,218.434 207.524,218.752 207.441 C 219.069 207.358,219.460 206.945,219.620 206.523 C 219.780 206.101,220.105 205.756,220.342 205.756 C 220.578 205.756,220.863 205.458,220.973 205.092 C 221.084 204.727,221.408 204.162,221.693 203.838 C 222.805 202.569,222.747 200.678,221.605 200.966 C 220.788 201.172,220.527 201.562,220.521 202.583 C 220.518 203.084,220.357 203.395,220.099 203.395 C 219.869 203.395,219.504 203.793,219.288 204.280 C 219.073 204.768,218.788 205.166,218.656 205.166 C 218.524 205.166,217.828 205.797,217.110 206.568 C 216.391 207.339,215.535 208.250,215.208 208.592 C 214.880 208.934,214.613 209.432,214.613 209.699 C 214.613 209.966,214.437 210.185,214.223 210.185 C 214.009 210.185,213.546 210.483,213.194 210.849 C 212.842 211.214,212.142 211.845,211.639 212.251 C 211.136 212.657,210.344 213.321,209.880 213.727 C 209.416 214.133,208.830 214.636,208.577 214.846 C 208.325 215.055,208.118 215.553,208.118 215.953 C 208.118 216.352,208.084 216.679,208.042 216.679 C 208.001 216.679,207.537 216.556,207.011 216.405 C 206.230 216.181,205.988 216.226,205.685 216.652 C 205.481 216.939,204.944 217.266,204.492 217.377 C 204.031 217.492,203.524 217.901,203.337 218.311 C 203.098 218.836,202.771 219.041,202.173 219.041 C 201.612 219.041,201.185 219.281,200.858 219.779 C 200.511 220.308,200.111 220.517,199.441 220.517 C 198.434 220.517,197.195 221.218,197.196 221.788 C 197.196 222.029,196.700 222.109,195.624 222.042 C 194.299 221.959,193.915 222.059,193.185 222.673 C 192.343 223.382,192.161 223.406,186.713 223.520 C 181.892 223.621,180.942 223.719,179.926 224.217 C 178.963 224.690,178.241 224.783,176.011 224.718 C 172.852 224.627,169.519 225.083,168.838 225.699 C 168.579 225.934,167.979 226.126,167.504 226.127 C 166.083 226.130,164.455 226.704,164.126 227.319 C 163.956 227.637,163.645 227.897,163.436 227.897 C 163.226 227.897,162.749 228.222,162.376 228.619 C 162.003 229.017,161.314 229.426,160.846 229.529 C 160.378 229.632,159.859 229.971,159.692 230.282 C 159.140 231.314,158.146 231.015,158.388 229.889 C 158.648 228.675,158.763 228.487,159.243 228.487 C 159.457 228.487,159.803 228.281,160.012 228.029 C 160.623 227.294,159.813 226.774,157.638 226.506 L 155.720 226.269 155.699 223.845 C 155.680 221.608,155.617 221.364,154.887 220.687 C 154.423 220.258,154.096 219.640,154.096 219.193 C 154.096 218.728,153.895 218.367,153.579 218.265 C 151.573 217.617,151.215 217.224,151.014 215.449 C 150.825 213.777,150.784 213.712,149.580 213.163 C 147.805 212.354,146.899 211.067,147.500 210.209 C 148.145 209.288,147.810 208.770,146.332 208.397 C 144.984 208.058,145.035 208.126,143.754 204.953 C 143.608 204.592,143.169 204.216,142.778 204.118 C 142.097 203.947,141.402 202.921,141.402 202.085 C 141.402 201.864,140.930 201.601,140.329 201.488 C 138.332 201.113,137.486 200.214,137.637 198.624 C 137.761 197.326,137.733 197.262,137.150 197.489 C 136.810 197.621,136.584 197.908,136.647 198.127 C 136.711 198.345,136.844 198.933,136.943 199.432 C 137.148 200.474,138.790 202.028,139.995 202.321 C 140.468 202.437,140.986 202.876,141.249 203.384 C 141.496 203.861,141.870 204.357,142.081 204.487 C 142.542 204.771,143.740 206.450,144.354 207.674 C 144.692 208.348,145.060 208.599,145.907 208.735 C 147.327 208.961,147.516 209.168,146.911 209.837 C 146.051 210.787,147.032 212.707,148.737 213.413 C 149.747 213.831,150.554 215.140,150.554 216.360 C 150.554 217.057,150.865 217.581,151.840 218.529 C 152.548 219.216,153.222 220.177,153.338 220.664 C 153.454 221.151,153.821 221.841,154.154 222.198 C 154.596 222.672,154.706 223.056,154.562 223.630 C 154.311 224.629,155.151 226.900,156.152 227.928 C 156.722 228.514,156.900 229.005,156.900 229.990 C 156.900 231.613,158.428 232.710,159.914 232.156 C 160.367 231.987,161.070 231.930,161.476 232.030 C 162.210 232.209,162.210 232.211,161.550 232.388 C 161.185 232.485,160.886 232.782,160.886 233.047 C 160.886 233.312,160.626 233.889,160.309 234.329 C 159.138 235.955,160.674 239.707,162.675 240.107 C 163.551 240.282,163.597 240.354,163.409 241.254 C 162.847 243.948,162.887 244.622,163.712 246.383 C 164.159 247.337,164.693 248.219,164.899 248.343 C 165.105 248.466,165.430 249.330,165.622 250.262 C 165.815 251.193,166.273 252.487,166.641 253.137 C 167.009 253.786,167.401 254.705,167.511 255.180 C 167.622 255.654,167.960 256.358,168.264 256.743 C 168.567 257.129,168.906 257.859,169.018 258.366 C 169.129 258.872,169.470 259.696,169.775 260.197 C 170.080 260.697,170.331 261.373,170.333 261.697 C 170.334 262.022,170.662 262.819,171.062 263.469 C 171.462 264.118,171.794 264.872,171.799 265.145 C 171.804 265.418,172.271 266.132,172.838 266.732 C 174.656 268.661,177.913 268.278,183.069 265.528 C 183.824 265.126,184.638 264.797,184.878 264.797 C 185.119 264.797,185.496 264.580,185.716 264.314 C 185.937 264.048,186.650 263.582,187.302 263.278 C 187.954 262.973,189.085 262.327,189.815 261.841 C 190.546 261.355,191.519 260.725,191.976 260.442 C 192.434 260.158,193.564 259.392,194.486 258.739 C 195.408 258.086,196.552 257.380,197.029 257.171 C 199.314 256.165,200.769 254.456,201.155 252.325 L 201.355 251.218 203.103 251.218 C 205.097 251.218,206.514 250.280,207.427 248.357 C 207.695 247.792,208.392 247.022,208.975 246.646 C 209.559 246.270,210.939 245.119,212.042 244.088 C 213.902 242.351,214.717 241.280,215.961 238.944 C 216.227 238.444,216.894 237.793,217.444 237.497 C 218.481 236.938,222.157 233.247,224.203 230.709 C 224.851 229.906,225.715 228.884,226.122 228.439 C 226.530 227.993,227.093 227.324,227.375 226.951 C 228.766 225.106,230.411 223.010,230.570 222.878 C 230.669 222.797,231.485 221.601,232.384 220.221 C 233.283 218.841,234.335 217.373,234.722 216.959 C 235.108 216.544,235.992 215.450,236.685 214.528 C 237.379 213.605,238.375 212.628,238.899 212.357 C 239.941 211.819,240.093 211.654,241.639 209.372 C 242.217 208.519,243.092 207.613,243.583 207.359 C 244.075 207.105,245.075 206.341,245.806 205.662 C 246.537 204.984,247.688 203.913,248.364 203.284 C 250.654 201.153,257.854 195.210,258.745 194.714 C 259.232 194.444,260.175 193.862,260.839 193.421 C 261.504 192.980,262.500 192.322,263.053 191.957 C 263.606 191.592,264.398 191.293,264.812 191.293 C 265.226 191.292,265.691 191.173,265.845 191.029 C 265.999 190.885,266.856 190.557,267.749 190.301 C 268.642 190.045,269.899 189.565,270.542 189.235 C 271.185 188.905,272.061 188.635,272.489 188.635 C 272.917 188.635,273.505 188.372,273.796 188.050 C 274.700 187.051,276.150 186.971,277.209 187.862 C 277.710 188.284,278.809 188.823,279.651 189.060 C 281.746 189.648,281.954 189.673,282.857 189.434 C 283.491 189.266,284.009 189.465,285.470 190.435 C 286.845 191.348,287.557 191.635,288.370 191.602 C 288.962 191.579,289.691 191.558,289.990 191.557 C 290.621 191.554,291.956 192.363,291.956 192.749 C 291.956 193.363,296.425 197.053,298.399 198.068 C 298.776 198.262,299.341 198.677,299.653 198.989 C 299.966 199.302,300.377 199.557,300.567 199.557 C 300.757 199.557,301.163 199.783,301.468 200.060 C 301.995 200.537,302.056 200.521,302.672 199.756 L 303.321 198.950 304.797 200.908 C 305.609 201.986,306.563 203.301,306.918 203.831 C 307.272 204.361,309.198 206.464,311.198 208.505 C 313.198 210.545,315.100 212.583,315.424 213.033 C 316.449 214.455,322.209 220.115,323.529 220.998 C 325.622 222.399,327.757 223.469,328.457 223.469 C 329.242 223.469,329.611 222.993,329.210 222.496 C 329.052 222.300,328.825 221.542,328.706 220.812 C 328.586 220.081,328.247 219.018,327.953 218.450 C 327.021 216.651,325.956 214.208,325.614 213.086 C 325.432 212.490,325.095 211.846,324.864 211.654 C 324.633 211.463,324.359 210.821,324.256 210.229 C 324.152 209.636,323.822 208.722,323.522 208.196 C 323.223 207.671,322.826 206.675,322.642 205.982 C 322.458 205.290,322.131 204.524,321.917 204.280 C 321.556 203.870,320.903 202.256,319.768 198.967 C 319.516 198.236,319.075 197.333,318.790 196.960 C 318.504 196.587,318.180 195.857,318.070 195.337 C 317.960 194.817,317.635 193.993,317.347 193.506 C 317.060 193.018,316.732 192.089,316.619 191.439 C 316.506 190.790,316.216 189.951,315.975 189.577 C 315.733 189.202,315.225 188.006,314.846 186.920 C 313.256 182.364,312.901 181.446,312.582 181.062 C 312.398 180.840,312.134 180.052,311.996 179.312 C 311.858 178.571,311.491 177.644,311.182 177.251 C 310.873 176.858,310.528 176.037,310.414 175.427 C 310.301 174.817,310.001 174.086,309.747 173.803 C 309.493 173.520,309.177 172.607,309.046 171.773 C 308.914 170.939,308.595 170.024,308.337 169.739 C 308.079 169.454,307.734 168.707,307.570 168.079 C 307.406 167.451,306.967 166.140,306.595 165.166 C 306.223 164.192,305.714 162.797,305.464 162.066 C 304.681 159.773,304.288 158.722,303.572 157.011 C 303.191 156.098,302.878 155.068,302.878 154.723 C 302.878 154.378,302.557 153.465,302.164 152.694 C 301.772 151.923,301.315 150.760,301.148 150.111 C 300.669 148.237,299.440 144.830,298.770 143.516 C 298.432 142.854,298.154 142.007,298.153 141.635 C 298.152 141.264,297.943 140.561,297.688 140.074 C 297.434 139.587,297.038 138.470,296.809 137.592 C 296.580 136.715,296.185 135.768,295.933 135.489 C 295.680 135.210,295.398 134.466,295.305 133.837 C 295.213 133.208,294.821 132.037,294.432 131.234 C 294.044 130.430,293.726 129.501,293.724 129.167 C 293.723 128.834,293.395 127.897,292.995 127.085 C 292.596 126.273,292.265 125.338,292.260 125.007 C 292.255 124.676,291.978 123.879,291.645 123.236 C 291.312 122.593,290.859 121.402,290.638 120.590 C 290.417 119.779,290.041 118.649,289.801 118.081 C 289.562 117.513,289.268 116.588,289.148 116.026 C 289.028 115.465,288.693 114.668,288.404 114.255 C 288.115 113.843,287.789 112.974,287.681 112.325 C 287.573 111.675,287.294 110.849,287.062 110.488 C 286.829 110.127,286.493 109.131,286.313 108.274 C 286.134 107.417,285.747 106.317,285.454 105.830 C 285.160 105.343,284.826 104.413,284.710 103.764 C 284.595 103.114,284.185 101.823,283.800 100.895 C 283.415 99.966,283.098 98.970,283.097 98.680 C 283.095 98.391,282.767 97.491,282.368 96.679 C 281.969 95.867,281.633 95.004,281.622 94.760 C 281.611 94.517,281.090 92.856,280.463 91.070 C 279.348 87.889,278.611 85.756,278.017 83.985 C 277.854 83.498,277.519 82.502,277.274 81.771 C 277.028 81.041,276.564 79.779,276.242 78.967 C 275.921 78.155,275.556 76.989,275.431 76.375 C 275.307 75.762,274.983 75.014,274.712 74.714 C 274.440 74.415,274.140 73.655,274.045 73.026 C 273.950 72.397,273.629 71.477,273.333 70.983 C 273.036 70.488,272.706 69.492,272.599 68.769 C 272.492 68.046,272.100 66.989,271.728 66.421 C 271.356 65.852,270.959 64.923,270.845 64.354 C 270.731 63.786,270.402 62.923,270.115 62.435 C 269.827 61.948,269.506 61.065,269.401 60.473 C 269.296 59.880,268.952 59.068,268.638 58.669 C 268.323 58.269,267.945 57.405,267.798 56.751 C 267.651 56.096,267.314 55.251,267.049 54.873 C 266.785 54.495,266.568 53.983,266.568 53.735 C 266.568 53.487,266.181 52.487,265.708 51.513 C 265.234 50.539,264.360 48.713,263.764 47.456 C 263.169 46.199,262.578 45.107,262.451 45.028 C 262.325 44.950,262.049 44.252,261.838 43.476 C 261.627 42.701,261.210 41.714,260.911 41.283 C 260.613 40.852,260.369 40.364,260.369 40.198 C 260.369 40.033,260.056 39.522,259.674 39.063 C 259.291 38.604,258.816 37.731,258.618 37.122 C 258.419 36.513,258.150 36.015,258.020 36.015 C 257.890 36.015,257.611 35.583,257.399 35.055 C 257.187 34.528,256.707 33.697,256.332 33.210 C 255.958 32.723,255.446 32.059,255.195 31.734 C 254.945 31.410,254.512 30.796,254.233 30.372 C 252.595 27.873,251.987 27.106,250.150 25.219 C 249.032 24.071,247.839 22.773,247.499 22.333 C 246.501 21.044,244.376 19.867,242.626 19.633 C 241.750 19.516,240.824 19.236,240.569 19.010 C 240.313 18.785,239.450 18.533,238.650 18.449 C 237.850 18.366,237.395 18.384,237.638 18.491 M257.149 64.174 C 256.746 64.660,257.010 66.746,257.573 67.515 C 257.905 67.970,257.976 67.864,258.160 66.640 C 258.494 64.411,257.984 63.167,257.149 64.174 M258.799 69.741 C 257.726 70.527,257.905 76.932,259.037 78.229 C 259.290 78.519,259.461 79.825,259.533 82.020 C 259.639 85.272,259.666 85.386,260.448 85.956 C 261.233 86.528,261.255 86.621,261.255 89.491 C 261.255 92.443,261.531 93.579,262.251 93.579 C 263.493 93.579,263.814 87.424,262.657 85.802 C 262.065 84.972,261.993 84.518,261.993 81.624 C 261.993 78.827,261.900 78.201,261.328 77.113 C 260.915 76.326,260.663 75.324,260.661 74.456 C 260.653 71.567,259.678 69.097,258.799 69.741 M263.055 97.460 C 262.827 98.115,262.821 98.725,263.037 99.527 C 263.356 100.711,264.049 101.044,264.327 100.148 C 265.081 97.720,263.862 95.146,263.055 97.460 M250.627 104.945 C 250.627 105.957,250.228 106.526,249.895 105.988 C 249.632 105.562,250.052 103.591,250.364 103.784 C 250.509 103.873,250.627 104.396,250.627 104.945 M181.775 118.290 C 182.142 118.361,182.673 118.358,182.955 118.284 C 183.238 118.210,182.937 118.152,182.288 118.156 C 181.638 118.159,181.407 118.219,181.775 118.290 M179.984 124.987 C 179.864 125.294,179.834 125.615,179.919 125.700 C 180.188 125.970,180.425 125.528,180.313 124.968 C 180.209 124.454,180.193 124.455,179.984 124.987 M187.686 146.125 C 187.615 146.613,187.666 147.011,187.800 147.011 C 187.934 147.011,188.044 146.613,188.044 146.125 C 188.044 145.638,187.993 145.240,187.930 145.240 C 187.867 145.240,187.758 145.638,187.686 146.125 M185.974 148.413 C 185.972 148.697,185.890 149.229,185.792 149.594 C 185.664 150.072,185.741 150.258,186.068 150.258 C 186.552 150.258,187.041 148.717,186.720 148.199 C 186.424 147.720,185.978 147.847,185.974 148.413 M184.565 150.609 C 184.138 151.035,184.082 152.915,184.495 152.915 C 184.938 152.915,185.744 151.531,185.633 150.961 C 185.507 150.312,185.022 150.152,184.565 150.609 M183.036 153.486 C 182.674 154.162,182.631 155.277,182.967 155.277 C 183.457 155.277,183.911 154.538,183.911 153.742 C 183.911 152.786,183.479 152.659,183.036 153.486 M181.434 155.744 C 181.335 156.001,181.255 156.440,181.255 156.721 C 181.255 157.002,180.856 157.527,180.369 157.887 C 179.812 158.298,179.483 158.805,179.483 159.251 C 179.483 159.691,179.268 160.028,178.917 160.140 C 178.541 160.259,178.286 160.703,178.158 161.459 C 178.027 162.234,177.784 162.646,177.399 162.747 C 177.088 162.828,176.694 163.262,176.523 163.711 C 176.353 164.160,176.031 164.671,175.809 164.847 C 175.156 165.364,174.904 167.085,175.482 167.085 C 175.742 167.085,176.079 166.761,176.229 166.365 C 176.380 165.969,176.763 165.506,177.081 165.335 C 177.433 165.147,177.735 164.573,177.854 163.870 C 177.982 163.115,178.233 162.667,178.579 162.576 C 178.901 162.492,179.182 162.046,179.296 161.436 C 179.417 160.794,179.722 160.331,180.148 160.144 C 180.558 159.964,180.847 159.542,180.905 159.040 C 180.957 158.594,181.242 158.099,181.538 157.940 C 182.119 157.629,182.827 155.967,182.562 155.538 C 182.301 155.116,181.628 155.238,181.434 155.744 M184.703 159.897 C 184.409 160.191,184.457 161.181,184.765 161.181 C 184.910 161.181,185.097 161.003,185.181 160.785 C 185.363 160.310,184.988 159.612,184.703 159.897 M182.847 162.804 C 182.557 163.730,182.581 163.838,183.070 163.838 C 183.405 163.838,183.633 163.609,183.661 163.247 C 183.685 162.923,183.718 162.502,183.734 162.312 C 183.804 161.494,183.142 161.861,182.847 162.804 M181.380 164.854 C 181.121 165.886,181.530 166.440,182.038 165.745 C 182.256 165.446,182.435 164.961,182.435 164.667 C 182.435 163.871,181.589 164.021,181.380 164.854 M179.784 167.361 C 179.603 168.034,179.280 168.561,179.050 168.561 C 178.529 168.561,176.827 171.058,176.827 171.823 C 176.827 172.631,177.365 172.540,177.764 171.665 C 177.948 171.261,178.410 170.727,178.791 170.477 C 179.172 170.227,179.483 169.777,179.483 169.476 C 179.483 169.175,179.743 168.746,180.061 168.523 C 180.714 168.065,180.997 166.474,180.459 166.285 C 180.252 166.212,179.974 166.655,179.784 167.361 M173.888 167.807 C 173.449 168.335,173.707 169.256,174.244 169.078 C 174.713 168.921,174.902 167.994,174.539 167.631 C 174.367 167.460,174.121 167.526,173.888 167.807 M172.399 170.923 C 172.399 171.474,172.477 171.552,172.753 171.277 C 173.028 171.001,173.028 170.844,172.753 170.568 C 172.477 170.293,172.399 170.371,172.399 170.923 M175.341 173.457 C 175.002 174.349,175.191 174.803,175.803 174.568 C 176.290 174.381,176.408 172.694,175.934 172.694 C 175.767 172.694,175.501 173.037,175.341 173.457 M224.228 195.389 C 223.980 195.792,224.385 197.506,224.685 197.321 C 225.031 197.108,225.018 195.505,224.670 195.289 C 224.519 195.196,224.320 195.241,224.228 195.389 M222.583 199.729 C 222.583 200.444,222.703 200.747,222.952 200.664 C 223.467 200.493,223.494 198.672,222.982 198.672 C 222.721 198.672,222.583 199.038,222.583 199.729 M169.117 227.279 C 169.444 227.486,169.401 227.605,168.902 227.872 C 168.259 228.216,166.790 228.021,166.790 227.591 C 166.790 227.114,168.495 226.885,169.117 227.279 M166.719 230.756 C 166.437 230.830,165.906 230.833,165.538 230.762 C 165.171 230.692,165.402 230.631,166.052 230.628 C 166.701 230.625,167.002 230.682,166.719 230.756 " stroke="none" fill="#dc9e4b" fill-rule="evenodd"></path></g></svg>